<?xml version="1.0" encoding="utf-8"?>
<!-- Generator: Adobe Illustrator 16.0.0, SVG Export Plug-In . SVG Version: 6.00 Build 0)  -->
<!DOCTYPE svg PUBLIC "-//W3C//DTD SVG 1.1//EN" "http://www.w3.org/Graphics/SVG/1.1/DTD/svg11.dtd">
<svg version="1.1" id="Layer_1" xmlns="http://www.w3.org/2000/svg" xmlns:xlink="http://www.w3.org/1999/xlink" x="0px" y="0px"
	 width="1404px" height="479px" viewBox="0 0 1404 479" enable-background="new 0 0 1404 479" xml:space="preserve">
<g>
	<g>
		
			<image overflow="visible" opacity="0.4" width="140" height="451" xlink:href="B9A54594.png"  transform="matrix(1 0 0 1 554.5 -20)">
		</image>
		<g>
			<path fill="#223C56" d="M657.834,395.658v-5.2h-6.366V373.21l0.75-0.509v-6.219l-0.696-0.308v-16.819L646,348.685v-51.758
				l-4.193-0.832c0,0,0-0.214-0.014-0.616c0-0.374,0-0.897-0.013-1.567c0-0.766-0.014-1.702-0.028-2.788
				c0-0.496,0-1.018-0.013-1.568c-0.014-0.856-0.014-1.794-0.028-2.786c-0.013-0.511-0.013-1.032-0.013-1.567
				c-0.014-0.886-0.026-1.826-0.04-2.788c0-0.509-0.014-1.033-0.014-1.569c-0.014-0.909-0.028-1.836-0.041-2.787
				c-0.013-0.523-0.013-1.045-0.013-1.569c-0.026-0.909-0.026-1.848-0.053-2.786c0-0.51-0.014-1.046-0.014-1.567
				c-0.014-0.927-0.028-1.85-0.041-2.788c-0.013-0.522-0.013-1.047-0.026-1.568c-0.014-0.926-0.027-1.862-0.042-2.788
				c-0.013-0.522-0.013-1.044-0.027-1.567c-0.013-0.939-0.04-1.862-0.052-2.787c0-0.521-0.014-1.047-0.028-1.569
				c-0.013-0.937-0.027-1.875-0.053-2.788c-0.013-0.535-0.013-1.057-0.027-1.567c-0.027-0.952-0.04-1.876-0.054-2.786
				c-0.014-0.537-0.026-1.06-0.039-1.568c-0.027-0.966-0.055-1.89-0.067-2.788c-0.015-0.536-0.027-1.059-0.041-1.567
				c-0.026-0.979-0.066-1.916-0.082-2.788c-0.025-0.55-0.039-1.072-0.064-1.568c-0.027-1.032-0.069-1.97-0.107-2.788
				c-0.028-0.575-0.056-1.098-0.082-1.567c-0.082-1.474-0.174-2.386-0.267-2.56c-0.042-0.08-0.094-0.146-0.149-0.228
				c-0.508-0.657-1.526-1.179-2.465-1.568c-1.071-0.429-2.037-0.669-2.037-0.669l-0.026-2.118l-0.027-1.567l-0.041-2.788
				l-0.014-1.567l-0.039-2.788l-0.028-1.569l-0.041-2.787l-0.026-1.568l-0.041-2.788l-0.015-1.567l-0.04-2.788l-0.025-1.568
				l-0.041-2.788l-0.015-1.567l-0.039-2.788l-0.026-1.569l-0.042-2.788l-0.013-1.567l-0.039-2.788l-0.028-1.568l-0.04-2.788
				l-0.027-1.568l-0.039-2.788l-0.014-1.567l-0.041-2.788l-0.027-1.568l-0.04-2.788l-0.014-1.567l-0.041-2.788l-0.026-1.567
				l-0.013-1.085l-4.021-2.346v-27.984l-0.376-0.857l-0.991-2.238l-0.214-0.496V106.62l-0.121-0.108l-1.689-1.568l-0.455-0.415
				V85.256l-0.858-1.528l-0.228-0.401V62.394l-1.179-1.502v-9.89h-0.832l-1.688-40.206l-0.67,21.604l-0.67,1.34V44.81l-1.166,2.333
				v20.451l-2.011,3.001v25.464l-1.835,2.358v15.238L614.828,116v18.428l-5.36,4.69v72.196l-6.353,3.86v61.488l-3.86,2.172v31.332
				l-4.182,2.171v77.571h-5.534v5.36h-5.026v4.959h79.407v-4.57H657.834z M646.39,350.534v1.569h-22.18v-1.569H646.39z
				 M624.21,381.8v-1.553h22.18v1.553H624.21z M646.39,384.268v1.555h-22.18v-1.555H646.39z M624.21,377.78v-1.555h22.18v1.555
				H624.21z M624.21,365.169v-1.567h22.18v1.567H624.21z M624.21,360.813v-1.567h22.18v1.567H624.21z M624.21,356.458v-1.568h22.18
				v1.568H624.21z M643.656,306.979v1.567H624.21v-1.567H643.656z M624.21,304.19v-1.569h19.446v1.569H624.21z M643.656,311.335
				v1.567H624.21v-1.567H643.656z M643.656,315.689v1.566H624.21v-1.566H643.656z M643.656,328.757v1.566H624.21v-1.566H643.656z
				 M643.656,333.112v1.567H624.21v-1.567H643.656z M643.656,337.467v1.569H624.21v-1.569H643.656z M643.656,341.822v1.567H624.21
				v-1.567H643.656z M643.656,346.178v1.568H624.21v-1.568H643.656z M643.656,298.268v1.567H624.21v-1.567H643.656z
				 M639.903,295.479H624.21v-1.567h15.681C639.903,294.581,639.903,295.104,639.903,295.479z M639.863,291.123H624.21v-1.568h15.64
				C639.863,290.105,639.863,290.627,639.863,291.123z M639.822,286.769H624.21v-1.567h15.6
				C639.81,285.736,639.81,286.258,639.822,286.769z M639.783,282.413H624.21v-1.569h15.56
				C639.77,281.38,639.783,281.904,639.783,282.413z M639.729,278.057h-15.52v-1.569h15.505
				C639.715,277.012,639.715,277.533,639.729,278.057z M639.676,273.701H624.21v-1.567h15.453
				C639.663,272.655,639.676,273.191,639.676,273.701z M639.422,256.277H624.21v-1.567h15.184
				C639.408,255.221,639.408,255.742,639.422,256.277z M639.341,251.924H624.21v-1.568h15.104
				C639.328,250.864,639.341,251.387,639.341,251.924z M639.246,247.567H624.21V246h15.011
				C639.233,246.509,639.233,247.031,639.246,247.567z M639.139,243.212H624.21v-1.568h14.877
				C639.113,242.14,639.126,242.662,639.139,243.212z M638.992,238.855H624.21v-1.567h14.702
				C638.938,237.757,638.965,238.28,638.992,238.855z M636.351,232.932c0.832,0.389,1.744,0.912,2.199,1.568h-14.34v-1.568H636.351z
				 M634.502,230.145H624.21v-1.567h10.265L634.502,230.145z M634.448,225.789H624.21v-1.567h10.226L634.448,225.789z
				 M634.396,221.434H624.21v-1.569h10.159L634.396,221.434z M634.341,217.078H624.21v-1.568h10.105L634.341,217.078z
				 M634.274,212.722H624.21v-1.567h10.051L634.274,212.722z M634.234,208.367H624.21v-1.568h9.998L634.234,208.367z
				 M634.167,204.011h-9.958v-1.567h9.944L634.167,204.011z M634.126,199.656h-9.916v-1.569h9.891L634.126,199.656z
				 M633.953,186.588h-9.743v-1.568h9.716L633.953,186.588z M633.899,182.232h-9.689v-1.567h9.676L633.899,182.232z
				 M633.846,177.877h-9.636v-1.568h9.609L633.846,177.877z M633.791,173.521h-9.581v-1.567h9.568L633.791,173.521z
				 M633.712,167.599l0.027,1.567h-9.529v-1.567H633.712z M649.07,389.843h-24.86v-1.556h24.86V389.843z M629.497,158.097v1.567
				h-8.53v-1.567H629.497z M629.497,154.304v1.568h-8.53v-1.568H629.497z M629.497,150.511v1.567h-8.53v-1.567H629.497z
				 M629.497,146.705v1.567h-8.53v-1.567H629.497z M629.497,142.912v1.568h-8.53v-1.568H629.497z M629.497,139.119v1.569h-8.53
				v-1.569H629.497z M629.497,136.184v0.697h-8.53v-1.554h8.206L629.497,136.184z M628.314,133.088h-7.348v-1.568h7.163v1.072
				L628.314,133.088z M628.129,127.728v1.568h-7.163v-1.568H628.129z M628.129,123.935v1.567h-7.163v-1.567H628.129z
				 M628.129,120.128v1.569h-7.163v-1.569H628.129z M628.129,116.336v1.568h-7.163v-1.568H628.129z M628.129,112.543v1.568h-7.163
				v-1.568H628.129z M628.129,108.737v1.567h-7.163v-1.567H628.129z M628.025,106.512h-7.059v-1.568h5.598L628.025,106.512z
				 M626.17,101.151v1.568h-5.204v-1.568H626.17z M626.17,97.346v1.567h-5.204v-1.567H626.17z M626.17,93.553v1.567h-5.204v-1.567
				H626.17z M626.17,89.76v1.567h-5.204V89.76H626.17z M626.17,85.967v1.568h-5.204v-1.568H626.17z M625.429,83.729h-4.462v-1.567
				h4.265v1.167L625.429,83.729z"/>
		</g>
	</g>
	<g>
		
			<image overflow="visible" opacity="0.4" width="187" height="406" xlink:href="B9A54595.png"  transform="matrix(1 0 0 1 134.5 92)">
		</image>
		<g>
			<path fill="#223C56" d="M178.839,467.474l4.179-198.741l-17.607-14.623v-5.967l19.992-2.984l2.687-76.097h1.492l2.091-39.985
				l3.878-6.864v51.925c0,0,34.02,37.599,47.149,65.649c0,0,20.889-5.072,31.632,0c2.685,5.372-7.76,5.074-7.76,5.074l-7.758,15.219
				c0,0,16.859,34.168,24.469,72.661c7.611,38.498,13.429,63.563,0,118.621l-5.371,16.112H178.839z M203.16,243.666l22.605-3.133
				c0,0-2.909-5.819-8.282-18.578c-5.371-12.756-14.323-24.843-14.323-24.843V243.666z M233.04,238.518h2.796l-8.28-13.43
				L233.04,238.518z M229.123,246.513l-31.639,4.459v6.122l34.467-4.853C230.823,249.467,229.856,247.678,229.123,246.513z
				 M235.246,261.857l-37.762,4.404v6.124l39.373-4.603C236.302,265.617,235.765,263.647,235.246,261.857z M237.232,269.305
				l-39.749,4.638v6.125l41.128-4.802C238.146,273.137,237.681,271.15,237.232,269.305z M238.934,276.789l-41.45,4.835v6.122
				l42.668-4.976C239.74,280.657,239.329,278.67,238.934,276.789z M240.438,284.291l-42.954,5.032v6.105l44.027-5.139
				C241.154,288.194,240.796,286.19,240.438,284.291z M241.781,291.828l-44.297,5.176v6.105l45.264-5.282
				C242.426,295.751,242.103,293.745,241.781,291.828z M242.98,299.367l-45.497,5.317v6.105l46.392-5.408
				C243.572,303.305,243.285,301.301,242.98,299.367z M244.089,306.923l-46.605,5.443v6.104l47.413-5.53
				C244.627,310.863,244.358,308.857,244.089,306.923z M245.093,314.495l-47.609,5.553v6.105l48.343-5.641
				C245.594,318.455,245.344,316.448,245.093,314.495z M246.705,328.088l-49.221,5.764v6.105l49.882-5.819
				C247.152,332.077,246.938,330.057,246.705,328.088z M247.527,335.695l-50.043,5.838v6.104l50.635-5.909
				C247.921,339.673,247.726,337.664,247.527,335.695z M248.262,343.288l-50.778,5.927v6.105l51.333-6.001
				C248.638,347.262,248.458,345.259,248.262,343.288z M248.959,350.879l-51.476,6.018v6.105l51.997-6.073
				C249.318,354.871,249.14,352.85,248.959,350.879z M249.605,358.489l-52.122,6.089v6.103l52.604-6.142
				C249.928,362.48,249.765,360.478,249.605,358.489z M250.197,366.097l-52.713,6.161v6.105l52.98-6.177
				C250.393,370.164,250.303,368.139,250.197,366.097z M250.517,373.744l-53.033,6.193v6.125l53.212-6.232
				C250.66,377.824,250.606,375.785,250.517,373.744z M250.716,381.407l-53.232,6.215v6.121l53.303-6.231
				C250.787,385.489,250.768,383.465,250.716,381.407z M197.484,399.491v6.124l53.212-6.213c0.055-2.024,0.072-4.064,0.091-6.144
				L197.484,399.491z M197.484,407.172v6.123l52.998-6.195c0.089-2.006,0.143-4.063,0.178-6.142L197.484,407.172z M197.484,414.853
				v6.124l52.693-6.141v-0.02c0.09-2.006,0.18-4.047,0.251-6.14L197.484,414.853z M197.484,422.537v6.121l52.246-6.106
				c0.126-1.986,0.251-4.045,0.358-6.158L197.484,422.537z M197.484,430.216v6.122l51.692-6.031
				c0.142-1.972,0.304-4.031,0.446-6.181L197.484,430.216z M197.484,437.896v6.123l51.029-5.961c0.179-1.95,0.357-4.011,0.536-6.177
				L197.484,437.896z M197.484,445.577v6.124l50.224-5.857c0.214-1.896,0.429-3.973,0.646-6.211L197.484,445.577z M197.484,453.257
				v6.127l49.311-5.751c0.215-1.719,0.464-3.795,0.732-6.212L197.484,453.257z M253.741,261.085l-12.82-1.411
				c0.216,0.697,0.448,1.431,0.662,2.184c0.377,1.271,0.752,2.648,1.148,4.117l13.303,1.47
				C255.246,265.206,254.476,263.075,253.741,261.085z M249.676,247.928l-12.82-1.415c0.216,0.697,0.448,1.432,0.663,2.185
				c0.376,1.271,0.751,2.649,1.146,4.119l13.302,1.466C251.181,252.046,250.411,249.913,249.676,247.928z M256.606,269.072
				l-13.465-1.486c0.018,0.069,0.037,0.129,0.053,0.197c0.127,0.501,0.253,1.003,0.378,1.521c0.338,1.432,0.716,2.954,1.073,4.566
				l14.109,1.557C258.038,273.225,257.305,271.113,256.606,269.072z M259.293,277.058l-14.307-1.594
				c0.107,0.432,0.198,0.879,0.287,1.325c0.322,1.575,0.664,3.206,1.02,4.942l15.04,1.667
				C260.651,281.25,259.972,279.116,259.293,277.058z M261.835,285.005l-15.24-1.681c0.055,0.323,0.109,0.646,0.18,0.967
				c0.322,1.685,0.625,3.438,0.95,5.264l15.988,1.774C263.104,289.199,262.479,287.086,261.835,285.005z M264.179,292.959
				l-16.168-1.792c0.036,0.213,0.072,0.448,0.108,0.661c0.304,1.774,0.591,3.637,0.895,5.553l16.866,1.878
				C265.344,297.165,264.77,295.054,264.179,292.959z M266.292,300.871l-17.025-1.897c0.016,0.125,0.035,0.27,0.052,0.394
				c0.287,1.881,0.573,3.813,0.859,5.819l17.619,1.969C267.349,305.079,266.847,302.982,266.292,300.871z M269.408,314.997
				c-0.375-2.04-0.788-4.116-1.254-6.229l-17.742-1.988c0,0.055,0.018,0.09,0.018,0.144c0.267,1.935,0.538,3.94,0.806,6.018v0.053
				L269.408,314.997z M269.675,316.609l-18.226-2.023c0.232,1.916,0.482,3.903,0.715,5.927c0.019,0.089,0.019,0.16,0.036,0.249
				l18.37,2.044C270.356,320.799,270.052,318.722,269.675,316.609z M271.358,330.594l-18.263-2.042
				c0.215,1.825,0.413,3.69,0.61,5.586c0.017,0.196,0.036,0.41,0.071,0.61l18.12,2.021
				C271.718,334.675,271.556,332.599,271.358,330.594z M272.021,338.345l-18.084-2.007c0.162,1.757,0.34,3.549,0.52,5.391
				c0.019,0.253,0.055,0.52,0.072,0.771l17.923,2.007C272.326,342.429,272.164,340.368,272.021,338.345z M272.56,346.097
				l-17.888-2.004c0.18,1.701,0.324,3.437,0.485,5.227c0.036,0.323,0.071,0.63,0.089,0.95l17.707,1.971
				C272.846,350.198,272.702,348.141,272.56,346.097z M273.06,353.813l-17.671-1.969c0.143,1.664,0.288,3.366,0.432,5.084
				c0.036,0.36,0.072,0.737,0.088,1.096l17.511,1.95C273.293,357.934,273.185,355.874,273.06,353.813z M273.49,361.551l-17.457-1.95
				c0.125,1.628,0.268,3.26,0.393,4.938c0.019,0.288,0.054,0.59,0.072,0.879c0,0.105,0.018,0.232,0.018,0.34l17.296,1.932
				C273.706,365.668,273.598,363.625,273.49,361.551z M273.884,369.271l-17.296-1.919c0.091,1.63,0.163,3.224,0.217,4.835
				c0.035,0.429,0.053,0.875,0.053,1.304l17.314,1.918C274.08,373.402,273.992,371.362,273.884,369.271z M274.243,377l-17.332-1.932
				c0.054,1.593,0.089,3.188,0.125,4.762c0.018,0.447,0.018,0.915,0.018,1.359l17.439,1.954
				C274.403,381.174,274.333,379.133,274.243,377z M274.762,390.859c-0.055-1.914-0.126-3.973-0.215-6.14l-17.475-1.952
				c0.036,1.592,0.053,3.168,0.053,4.744c0,0.465,0.018,0.933,0,1.379L274.762,390.859z M274.976,396.626l-17.869-1.987
				c-0.018,1.608-0.036,3.185-0.072,4.764c0,0.446-0.018,0.896-0.035,1.342l18.155,2.023
				C275.102,401.243,275.047,399.168,274.976,396.626z M275.192,404.343l-18.227-2.042c-0.019,1.629-0.072,3.224-0.143,4.799
				c0,0.447-0.018,0.875-0.036,1.307l18.173,2.021c0.179-2.988,0.269-4.813,0.269-4.813S275.21,405.167,275.192,404.343z
				 M256.714,409.963c-0.054,1.648-0.126,3.262-0.198,4.854v0.02c-0.035,0.412-0.054,0.804-0.071,1.218l17.995,2.005
				c0.161-2.258,0.304-4.316,0.412-6.073L256.714,409.963z M256.355,417.593c-0.089,1.699-0.179,3.346-0.286,4.959
				c-0.018,0.377-0.053,0.751-0.072,1.129l17.852,1.985c0.179-2.112,0.34-4.152,0.466-6.068L256.355,417.593z M255.892,425.238
				c-0.128,1.752-0.252,3.437-0.378,5.068c-0.036,0.339-0.053,0.678-0.072,1l17.743,1.969c0.198-2.039,0.378-4.081,0.538-6.05
				L255.892,425.238z M255.299,432.848c-0.142,1.809-0.303,3.545-0.447,5.21c-0.037,0.289-0.055,0.571-0.09,0.86l17.672,1.971
				c0.216-2.008,0.412-4.03,0.608-6.072L255.299,432.848z M254.619,440.457c-0.197,1.933-0.376,3.723-0.574,5.387
				c-0.017,0.217-0.036,0.45-0.071,0.663l17.528,1.952c0.269-1.934,0.52-3.955,0.752-6.052L254.619,440.457z M253.794,448.048
				c-0.232,2.146-0.465,4.008-0.662,5.585c-0.019,0.163-0.038,0.307-0.055,0.465l17.225,1.916c0.339-1.809,0.682-3.829,0.985-6.015
				L253.794,448.048z"/>
		</g>
	</g>
	<g>
		
			<image overflow="visible" opacity="0.4" width="114" height="425" xlink:href="B9A54596.png"  transform="matrix(1 0 0 1 1083.5 73)">
		</image>
		<g>
			<g>
				<path fill="#223C56" d="M1113.879,467.474V203.43l49.454-49.453v-50.323h3.473v363.819H1113.879z M1155.383,428.722h-30.08
					v31.812h30.08V428.722z M1155.383,208.059h-30.08v29.354h30.08V208.059z M1155.383,423.515h-30.08v2.098h30.08V423.515z
					 M1155.383,417.877h-30.08v2.097h30.08V417.877z M1155.383,412.235h-30.08v2.098h30.08V412.235z M1155.383,406.598h-30.08v2.098
					h30.08V406.598z M1155.383,400.958h-30.08v2.097h30.08V400.958z M1155.383,395.317h-30.08v2.097h30.08V395.317z
					 M1155.383,389.679h-30.08v2.096h30.08V389.679z M1155.383,384.039h-30.08v2.097h30.08V384.039z M1155.383,378.401h-30.08v2.095
					h30.08V378.401z M1155.383,372.76h-30.08v2.096h30.08V372.76z M1155.383,367.123h-30.08v2.095h30.08V367.123z M1155.383,356.274
					h-30.08v2.1h30.08V356.274z M1155.383,350.637h-30.08v2.096h30.08V350.637z M1155.383,344.997h-30.08v2.096h30.08V344.997z
					 M1155.383,339.356h-30.08v2.098h30.08V339.356z M1155.383,333.717h-30.08v2.097h30.08V333.717z M1155.383,328.079h-30.08v2.097
					h30.08V328.079z M1155.383,322.438h-30.08v2.098h30.08V322.438z M1155.383,316.8h-30.08v2.095h30.08V316.8z M1155.383,311.16
					h-30.08v2.097h30.08V311.16z M1155.383,305.521h-30.08v2.096h30.08V305.521z M1155.383,296.193h-30.08v2.097h30.08V296.193z
					 M1155.383,290.555h-30.08v2.095h30.08V290.555z M1155.383,284.914h-30.08v2.097h30.08V284.914z M1155.383,279.275h-30.08v2.096
					h30.08V279.275z M1155.383,273.636h-30.08v2.098h30.08V273.636z M1155.383,267.995h-30.08v2.097h30.08V267.995z
					 M1155.383,262.357h-30.08v2.097h30.08V262.357z M1155.383,256.717h-30.08v2.098h30.08V256.717z M1155.383,251.076h-30.08v2.098
					h30.08V251.076z M1155.383,245.438h-30.08v2.097h30.08V245.438z M1155.959,199.672v-30.656l-30.656,30.656H1155.959z"/>
			</g>
		</g>
	</g>
	<g>
		
			<image overflow="visible" opacity="0.4" width="127" height="425" xlink:href="B9A54597.png"  transform="matrix(1 0 0 1 1142.5 73)">
		</image>
		<g>
			<path fill="#223C56" d="M1189.136,153.977v-50.323h-3.471v50.836l-12.724,19.606v35.247l12.724,10.118v46.439l-12.724,13.593
				v187.981h12.724h52.924V203.43L1189.136,153.977z M1227.166,460.533h-30.078v-31.812h30.078V460.533z M1227.166,425.612h-30.078
				v-2.098h30.078V425.612z M1227.166,419.974h-30.078v-2.097h30.078V419.974z M1227.166,414.333h-30.078v-2.098h30.078V414.333z
				 M1227.166,408.695h-30.078v-2.098h30.078V408.695z M1227.166,403.055h-30.078v-2.097h30.078V403.055z M1227.166,397.414h-30.078
				v-2.097h30.078V397.414z M1227.166,391.774h-30.078v-2.096h30.078V391.774z M1227.166,386.136h-30.078v-2.097h30.078V386.136z
				 M1227.166,380.496h-30.078v-2.095h30.078V380.496z M1227.166,374.855h-30.078v-2.096h30.078V374.855z M1227.166,369.218h-30.078
				v-2.095h30.078V369.218z M1227.166,358.374h-30.078v-2.1h30.078V358.374z M1227.166,352.732h-30.078v-2.096h30.078V352.732z
				 M1227.166,347.093h-30.078v-2.096h30.078V347.093z M1227.166,341.454h-30.078v-2.098h30.078V341.454z M1227.166,335.813h-30.078
				v-2.097h30.078V335.813z M1227.166,330.176h-30.078v-2.097h30.078V330.176z M1227.166,324.535h-30.078v-2.098h30.078V324.535z
				 M1227.166,318.895h-30.078V316.8h30.078V318.895z M1227.166,313.257h-30.078v-2.097h30.078V313.257z M1227.166,307.617h-30.078
				v-2.096h30.078V307.617z M1227.166,298.29h-30.078v-2.097h30.078V298.29z M1227.166,292.649h-30.078v-2.095h30.078V292.649z
				 M1227.166,287.011h-30.078v-2.097h30.078V287.011z M1227.166,281.371h-30.078v-2.096h30.078V281.371z M1227.166,275.733h-30.078
				v-2.098h30.078V275.733z M1227.166,270.092h-30.078v-2.097h30.078V270.092z M1227.166,264.454h-30.078v-2.097h30.078V264.454z
				 M1227.166,258.814h-30.078v-2.098h30.078V258.814z M1227.166,253.174h-30.078v-2.098h30.078V253.174z M1227.166,247.535h-30.078
				v-2.097h30.078V247.535z M1227.166,237.413h-30.078v-29.354h30.078V237.413z M1196.508,199.672v-30.656l30.658,30.656H1196.508z"
				/>
		</g>
	</g>
	<g>
		
			<image overflow="visible" opacity="0.4" width="190" height="326" xlink:href="B9A54598.png"  transform="matrix(1 0 0 1 309.5 172)">
		</image>
		<g>
			<path fill="#223C56" d="M458.407,432.593v-6.896h-7.106v-129.18l-2.628-2.645v-29.607h-6.084v-13.388h-5.272v-8.517h-5.273
				v-7.301h-8.518c0-8.909-7.016-16.162-15.819-16.589v-16.4h-1.621v16.4c-8.806,0.427-15.821,7.68-15.821,16.589h-6.586v9.232
				l-4.575,4.56v6.684l-4.251,4.266v12.77h-5.062l-3.051,3.05v140.746h-4.055v5.275h-6.49v4.866h-6.895v4.866h-9.33v36.1h129.391
				v-34.881H458.407z M397.971,250.067l0.438-0.697l6.262-9.849h17.635v15.414h-12.573c0,0-11.762-0.813-11.762,8.923V250.067z
				 M422.307,266.048v4.3h-23.118c2.969-4.816,10.545-4.3,10.545-4.3H422.307z M397.971,274.973c0-0.649,0.049-1.234,0.146-1.786
				h24.19v5.272h-24.335V274.973z M397.971,281.298h24.335v5.276h-24.335V281.298z M397.971,289.41h24.335v5.274h-24.335V289.41z
				 M397.971,297.523h24.335v5.273h-24.335V297.523z M397.971,305.638h24.335v5.271h-24.335V305.638z M397.971,313.748h24.335v5.273
				h-24.335V313.748z M397.971,321.859h24.335v5.273h-24.335V321.859z M397.971,329.972h24.335v5.273h-24.335V329.972z
				 M397.971,342.547v-4.46h24.335v5.271h-34.069v-0.812H397.971z M384.585,392.029v-4.865h3.653v-0.406h34.069v5.271H384.585z
				 M422.307,394.871v5.271h-45.833v-5.271H422.307z M388.238,383.919v-5.275h34.069v5.275H388.238z M388.238,375.807v-5.273h34.069
				v5.273H388.238z M388.238,367.694v-5.272h34.069v5.272H388.238z M388.238,359.582v-5.273h34.069v5.273H388.238z M388.238,351.47
				v-5.273h34.069v5.273H388.238z M369.984,278.865l3.05-3.05h5.061v-12.769l4.251-4.267v-6.685l4.576-4.56v-9.231h6.182v19.875
				h-5.987v6.086h3.001v10.949h-7.155v3.244h4.154v2.839h-8.616v55.976h-8.517V278.865z M376.068,462.608h-31.232v-2.841h31.232
				V462.608z M376.068,456.928h-31.232v-5.271h31.232V456.928z M376.068,448.815h-31.232v-5.271h31.232V448.815z M427.775,462.608
				h-23.119v-2.841h23.119V462.608z M427.775,456.928h-23.119v-5.271h23.119V456.928z M427.775,448.815h-23.119v-5.271h23.119
				V448.815z M427.775,440.703h-23.119v-2.839h-28.588v2.839h-31.232v-5.273h82.939V440.703z M427.775,432.593h-75.233v-2.842h6.895
				v-2.432h68.338V432.593z M427.775,424.479h-61.847v-4.865h4.056v-0.406h57.791V424.479z M427.775,416.366h-57.791v-5.273h57.791
				V416.366z M427.775,408.256h-57.791v-5.273h54.759l3.032,3.05V408.256z M448.057,425.291h-7.092v8.112h-7.3v-114.79h5.678
				v-48.266h-7.706V258.18h7.706v9.328h6.085v29.61l2.628,2.644V425.291z"/>
		</g>
	</g>
	<g>
		
			<image overflow="visible" opacity="0.4" width="149" height="191" xlink:href="B9A5459D.png"  transform="matrix(1 0 0 1 920.5 307)">
		</image>
		<g>
			<path fill="#223C56" d="M1017.452,346.474v-5.18c0,0-7.074-3.831-22.516-3.831c-15.462,0-22.532,3.831-22.532,3.831v5.18
				c-14.373,2.167-21.098,5.815-21.098,5.815v115.185h87.244V352.289C1038.551,352.289,1031.819,348.641,1017.452,346.474z
				 M982,363.42c3.238-0.286,6.803-0.452,10.648-0.5v4.563c-3.814,0.055-7.374,0.233-10.648,0.498V363.42z M982,372.543
				c3.238-0.285,6.803-0.451,10.648-0.502v4.563c-3.814,0.057-7.374,0.235-10.648,0.5V372.543z M982,381.667
				c3.238-0.285,6.803-0.452,10.648-0.501v4.564c-3.814,0.055-7.374,0.233-10.648,0.498V381.667z M982,390.791
				c3.238-0.286,6.803-0.452,10.648-0.503v4.566c-3.814,0.055-7.374,0.232-10.648,0.499V390.791z M982,399.915
				c3.238-0.285,6.803-0.453,10.648-0.502v4.563c-3.814,0.057-7.374,0.235-10.648,0.5V399.915z M982,409.038
				c3.238-0.285,6.803-0.454,10.648-0.503v4.566c-3.814,0.055-7.374,0.233-10.648,0.498V409.038z M982,418.161
				c3.238-0.284,6.803-0.452,10.648-0.501v4.563c-3.814,0.057-7.374,0.234-10.648,0.499V418.161z M982,427.285
				c3.238-0.285,6.803-0.454,10.648-0.501v4.563c-3.814,0.056-7.374,0.234-10.648,0.498V427.285z M977.051,441.47
				c-15.783,1.874-23.88,5.73-23.971,5.772v-3.945c0.408-0.252,7.754-4.425,23.971-6.386V441.47z M977.051,432.349
				c-15.783,1.871-23.88,5.726-23.971,5.77v-3.945c0.408-0.251,7.754-4.425,23.971-6.388V432.349z M977.051,423.225
				c-15.783,1.871-23.88,5.727-23.971,5.771v-3.943c0.408-0.251,7.754-4.425,23.971-6.39V423.225z M977.051,414.099
				c-15.783,1.874-23.88,5.729-23.971,5.772v-3.944c0.408-0.251,7.754-4.424,23.971-6.389V414.099z M977.051,404.978
				c-15.783,1.869-23.88,5.728-23.971,5.771v-3.942c0.408-0.254,7.754-4.429,23.971-6.391V404.978z M977.051,395.854
				c-15.783,1.872-23.88,5.726-23.971,5.772v-3.946c0.408-0.25,7.754-4.426,23.971-6.389V395.854z M977.051,386.73
				c-15.783,1.869-23.88,5.725-23.971,5.771v-3.944c0.408-0.253,7.754-4.428,23.971-6.391V386.73z M977.051,377.606
				c-15.783,1.869-23.88,5.726-23.971,5.772v-3.945c0.408-0.253,7.754-4.427,23.971-6.39V377.606z M977.051,368.483
				c-15.783,1.869-23.88,5.726-23.971,5.771v-3.946c0.408-0.252,7.754-4.427,23.971-6.387V368.483z M977.051,359.359
				c-15.783,1.871-23.88,5.726-23.971,5.77v-3.942c0.408-0.254,7.754-4.427,23.971-6.39V359.359z M982,436.409
				c3.238-0.283,6.803-0.454,10.648-0.502v4.565c-3.814,0.054-7.374,0.232-10.648,0.497V436.409z M1007.844,440.97
				c-3.274-0.265-6.824-0.445-10.637-0.497v-4.565c3.844,0.048,7.393,0.219,10.637,0.502V440.97z M1007.844,431.846
				c-3.274-0.264-6.824-0.443-10.637-0.498v-4.563c3.844,0.047,7.393,0.216,10.637,0.501V431.846z M1007.844,422.723
				c-3.274-0.265-6.824-0.445-10.637-0.499v-4.563c3.844,0.049,7.393,0.217,10.637,0.501V422.723z M1007.844,413.6
				c-3.274-0.265-6.824-0.446-10.637-0.498v-4.566c3.844,0.049,7.393,0.218,10.637,0.503V413.6z M1007.844,404.476
				c-3.274-0.265-6.824-0.444-10.637-0.5v-4.563c3.844,0.049,7.393,0.217,10.637,0.502V404.476z M1007.844,395.354
				c-3.274-0.267-6.824-0.445-10.637-0.499v-4.566c3.844,0.051,7.393,0.217,10.637,0.503V395.354z M1007.844,386.229
				c-3.274-0.265-6.824-0.446-10.637-0.498v-4.564c3.844,0.049,7.393,0.216,10.637,0.501V386.229z M1007.844,377.104
				c-3.274-0.265-6.824-0.446-10.637-0.5v-4.563c3.844,0.051,7.393,0.217,10.637,0.502V377.104z M1007.844,367.981
				c-3.274-0.265-6.824-0.446-10.637-0.498v-4.563c3.844,0.048,7.393,0.214,10.637,0.5V367.981z M1007.844,358.857
				c-3.923-0.318-8.212-0.522-12.911-0.522c-4.697,0-9.008,0.204-12.933,0.522v-4.562c3.879-0.341,8.188-0.523,12.933-0.523
				s9.033,0.183,12.911,0.523V358.857z M1036.786,447.242c-0.089-0.042-8.187-3.898-23.993-5.772v-4.559
				c16.242,1.961,23.582,6.134,23.993,6.386V447.242z M1036.786,438.118c-0.089-0.044-8.187-3.898-23.993-5.77v-4.563
				c16.242,1.963,23.582,6.137,23.993,6.388V438.118z M1036.786,428.995c-0.089-0.044-8.187-3.899-23.993-5.771v-4.563
				c16.242,1.965,23.582,6.139,23.993,6.39V428.995z M1036.786,419.871c-0.089-0.044-8.187-3.898-23.993-5.772v-4.561
				c16.242,1.965,23.582,6.138,23.993,6.389V419.871z M1036.786,410.748c-0.089-0.043-8.187-3.901-23.993-5.771v-4.563
				c16.242,1.962,23.582,6.137,23.993,6.391V410.748z M1036.786,401.626c-0.089-0.047-8.187-3.9-23.993-5.772v-4.563
				c16.242,1.963,23.582,6.139,23.993,6.389V401.626z M1036.786,392.502c-0.089-0.047-8.187-3.902-23.993-5.771v-4.563
				c16.242,1.963,23.582,6.138,23.993,6.391V392.502z M1036.786,383.379c-0.089-0.047-8.187-3.903-23.993-5.772v-4.563
				c16.242,1.963,23.582,6.137,23.993,6.39V383.379z M1036.786,374.255c-0.089-0.046-8.187-3.902-23.993-5.771v-4.562
				c16.242,1.96,23.582,6.135,23.993,6.387V374.255z M1036.786,365.129c-0.089-0.044-8.187-3.898-23.993-5.77v-4.563
				c16.242,1.963,23.582,6.136,23.993,6.39V365.129z"/>
		</g>
	</g>
	<g>
		
			<image overflow="visible" opacity="0.4" width="125" height="156" xlink:href="B9A5459E.png"  transform="matrix(1 0 0 1 1013.5 342)">
		</image>
		<g>
			<path fill="#223C56" d="M1092.759,378.656v-3.804c0,0-5.192-2.812-16.524-2.812c-11.352,0-16.543,2.812-16.543,2.812v3.804
				c-10.548,1.591-15.485,4.268-15.485,4.268v84.55h64.041v-84.55C1108.247,382.924,1103.307,380.247,1092.759,378.656z
				 M1066.737,391.094c2.379-0.208,4.993-0.331,7.814-0.366v3.35c-2.798,0.04-5.411,0.172-7.814,0.364V391.094z M1066.737,397.791
				c2.379-0.209,4.993-0.332,7.814-0.367v3.352c-2.798,0.04-5.411,0.169-7.814,0.367V397.791z M1066.737,404.49
				c2.379-0.21,4.993-0.333,7.814-0.369v3.351c-2.798,0.038-5.411,0.17-7.814,0.366V404.49z M1066.737,411.186
				c2.379-0.21,4.993-0.331,7.814-0.366v3.351c-2.798,0.038-5.411,0.168-7.814,0.364V411.186z M1066.737,417.883
				c2.379-0.211,4.993-0.333,7.814-0.367v3.35c-2.798,0.041-5.411,0.173-7.814,0.366V417.883z M1066.737,424.581
				c2.379-0.21,4.993-0.333,7.814-0.369v3.351c-2.798,0.038-5.411,0.17-7.814,0.366V424.581z M1066.737,431.277
				c2.379-0.21,4.993-0.333,7.814-0.367v3.351c-2.798,0.039-5.411,0.17-7.814,0.364V431.277z M1066.737,437.974
				c2.379-0.21,4.993-0.333,7.814-0.367v3.351c-2.798,0.04-5.411,0.17-7.814,0.365V437.974z M1063.104,448.387
				c-11.585,1.374-17.528,4.204-17.596,4.235v-2.894c0.301-0.186,5.692-3.248,17.596-4.689V448.387z M1063.104,441.689
				c-11.585,1.375-17.528,4.204-17.596,4.238v-2.897c0.301-0.185,5.692-3.248,17.596-4.688V441.689z M1063.104,434.993
				c-11.585,1.373-17.528,4.204-17.596,4.237v-2.897c0.301-0.184,5.692-3.249,17.596-4.688V434.993z M1063.104,428.295
				c-11.585,1.377-17.528,4.205-17.596,4.238v-2.896c0.301-0.186,5.692-3.25,17.596-4.689V428.295z M1063.104,421.601
				c-11.585,1.373-17.528,4.202-17.596,4.236v-2.897c0.301-0.184,5.692-3.247,17.596-4.688V421.601z M1063.104,414.902
				c-11.585,1.372-17.528,4.202-17.596,4.236v-2.896c0.301-0.185,5.692-3.249,17.596-4.688V414.902z M1063.104,408.206
				c-11.585,1.373-17.528,4.202-17.596,4.236v-2.897c0.301-0.184,5.692-3.248,17.596-4.688V408.206z M1063.104,401.508
				c-11.585,1.374-17.528,4.202-17.596,4.236v-2.896c0.301-0.186,5.692-3.247,17.596-4.688V401.508z M1063.104,394.811
				c-11.585,1.374-17.528,4.203-17.596,4.237v-2.896c0.301-0.185,5.692-3.25,17.596-4.688V394.811z M1063.104,388.113
				c-11.585,1.375-17.528,4.205-17.596,4.238v-2.897c0.301-0.183,5.692-3.248,17.596-4.689V388.113z M1066.737,444.67
				c2.379-0.208,4.993-0.333,7.814-0.368v3.352c-2.798,0.04-5.411,0.172-7.814,0.367V444.67z M1085.705,448.021
				c-2.402-0.195-5.007-0.329-7.805-0.367v-3.352c2.822,0.035,5.426,0.16,7.805,0.368V448.021z M1085.705,441.322
				c-2.402-0.195-5.007-0.327-7.805-0.365v-3.351c2.822,0.034,5.426,0.157,7.805,0.367V441.322z M1085.705,434.625
				c-2.402-0.194-5.007-0.326-7.805-0.364v-3.351c2.822,0.034,5.426,0.157,7.805,0.367V434.625z M1085.705,427.929
				c-2.402-0.196-5.007-0.328-7.805-0.366v-3.351c2.822,0.036,5.426,0.159,7.805,0.369V427.929z M1085.705,421.231
				c-2.402-0.193-5.007-0.328-7.805-0.366v-3.35c2.822,0.034,5.426,0.156,7.805,0.367V421.231z M1085.705,414.534
				c-2.402-0.196-5.007-0.327-7.805-0.364v-3.351c2.822,0.035,5.426,0.156,7.805,0.366V414.534z M1085.705,407.838
				c-2.402-0.196-5.007-0.328-7.805-0.366v-3.351c2.822,0.036,5.426,0.159,7.805,0.369V407.838z M1085.705,401.143
				c-2.402-0.198-5.007-0.33-7.805-0.367v-3.352c2.822,0.035,5.426,0.158,7.805,0.367V401.143z M1085.705,394.441
				c-2.402-0.192-5.007-0.325-7.805-0.364v-3.35c2.822,0.035,5.426,0.158,7.805,0.366V394.441z M1085.705,387.747
				c-2.878-0.235-6.024-0.385-9.474-0.385c-3.45,0-6.613,0.149-9.494,0.385v-3.348c2.849-0.25,6.011-0.387,9.494-0.387
				c3.481,0,6.631,0.137,9.474,0.387V387.747z M1106.955,452.622c-0.067-0.031-6.013-2.861-17.616-4.235v-3.348
				c11.922,1.441,17.312,4.504,17.616,4.689V452.622z M1106.955,445.928c-0.067-0.034-6.013-2.863-17.616-4.238v-3.348
				c11.922,1.44,17.312,4.504,17.616,4.688V445.928z M1106.955,439.23c-0.067-0.033-6.013-2.864-17.616-4.237v-3.349
				c11.922,1.439,17.312,4.505,17.616,4.688V439.23z M1106.955,432.533c-0.067-0.033-6.013-2.861-17.616-4.238v-3.347
				c11.922,1.439,17.312,4.504,17.616,4.689V432.533z M1106.955,425.837c-0.067-0.034-6.013-2.863-17.616-4.236v-3.35
				c11.922,1.441,17.312,4.505,17.616,4.688V425.837z M1106.955,419.139c-0.067-0.034-6.013-2.864-17.616-4.236v-3.349
				c11.922,1.439,17.312,4.504,17.616,4.688V419.139z M1106.955,412.442c-0.067-0.034-6.013-2.863-17.616-4.236v-3.349
				c11.922,1.439,17.312,4.504,17.616,4.688V412.442z M1106.955,405.744c-0.067-0.034-6.013-2.862-17.616-4.236v-3.348
				c11.922,1.441,17.312,4.503,17.616,4.688V405.744z M1106.955,399.048c-0.067-0.034-6.013-2.863-17.616-4.237v-3.348
				c11.922,1.438,17.312,4.504,17.616,4.688V399.048z M1106.955,392.352c-0.067-0.033-6.013-2.863-17.616-4.238v-3.349
				c11.922,1.441,17.312,4.507,17.616,4.689V392.352z"/>
		</g>
	</g>
	<g>
		
			<image overflow="visible" opacity="0.4" width="124" height="415" xlink:href="B9A5459F.png"  transform="matrix(1 0 0 1 264.5 83)">
		</image>
		<g>
			<path fill="#223C56" d="M357.688,457.056v10.418h-62.978v-10.418h4.398V219.493h7.177v-59.736h3.012v-10.191h3.588v-10.072
				c0-7.038,5.469-12.788,12.387-13.268v-12.547h1.854v12.547c6.917,0.48,12.386,6.23,12.386,13.268v10.072h3.588v10.191h3.013
				v59.736h7.177v237.563H357.688z M340.265,452.715h-28.131v2.43h28.131V452.715z M340.265,447.792h-28.131v2.431h28.131V447.792z
				 M340.265,442.872h-28.131v2.432h28.131V442.872z M340.265,437.951h-28.131v2.432h28.131V437.951z M340.265,433.032h-28.131
				v2.429h28.131V433.032z M340.265,428.109h-28.131v2.431h28.131V428.109z M340.265,423.188h-28.131v2.434h28.131V423.188z
				 M340.265,418.27h-28.131v2.431h28.131V418.27z M340.265,413.348h-28.131v2.431h28.131V413.348z M340.265,408.427h-28.131v2.431
				h28.131V408.427z M340.265,403.507h-28.131v2.432h28.131V403.507z M340.265,398.586h-28.131v2.431h28.131V398.586z
				 M340.265,393.665h-28.131v2.431h28.131V393.665z M340.265,388.741h-28.131v2.436h28.131V388.741z M340.265,383.824h-28.131v2.43
				h28.131V383.824z M340.265,378.903h-28.131v2.431h28.131V378.903z M340.265,373.981h-28.131v2.432h28.131V373.981z
				 M340.265,369.062h-28.131v2.433h28.131V369.062z M340.265,364.141h-28.131v2.431h28.131V364.141z M340.265,359.221h-28.131
				v2.429h28.131V359.221z M340.265,354.297h-28.131v2.435h28.131V354.297z M340.265,349.379h-28.131v2.431h28.131V349.379z
				 M340.265,344.459h-28.131v2.429h28.131V344.459z M340.265,339.535h-28.131v2.434h28.131V339.535z M340.265,334.615h-28.131
				v2.433h28.131V334.615z M340.265,329.696h-28.131v2.43h28.131V329.696z M340.265,324.773h-28.131v2.432h28.131V324.773z
				 M340.265,319.855h-28.131v2.431h28.131V319.855z M340.265,314.934h-28.131v2.432h28.131V314.934z M340.265,310.014h-28.131v2.43
				h28.131V310.014z M340.265,305.09h-28.131v2.434h28.131V305.09z M340.265,300.171h-28.131v2.433h28.131V300.171z M340.265,295.25
				h-28.131v2.431h28.131V295.25z M340.265,290.328h-28.131v2.433h28.131V290.328z M340.265,285.41h-28.131v2.43h28.131V285.41z
				 M340.265,280.488h-28.131v2.431h28.131V280.488z M340.265,275.566h-28.131v2.432h28.131V275.566z M340.265,270.646h-28.131
				v2.434h28.131V270.646z M340.265,265.725h-28.131v2.434h28.131V265.725z M340.265,260.805h-28.131v2.432h28.131V260.805z
				 M340.265,255.884h-28.131v2.432h28.131V255.884z M340.265,250.963h-28.131v2.432h28.131V250.963z M340.265,246.042h-28.131
				v2.433h28.131V246.042z M340.265,241.122h-28.131v2.432h28.131V241.122z M340.265,236.202h-28.131v2.431h28.131V236.202z
				 M340.265,231.281h-28.131v2.431h28.131V231.281z M340.265,226.36h-28.131v2.432h28.131V226.36z M340.265,221.439h-28.131v2.431
				h28.131V221.439z M340.265,216.519h-28.131v2.432h28.131V216.519z M340.265,211.599h-28.131v2.43h28.131V211.599z
				 M340.265,206.678h-28.131v2.431h28.131V206.678z M340.265,201.756h-28.131v2.432h28.131V201.756z M340.265,196.836h-28.131
				v2.431h28.131V196.836z M340.265,191.915h-28.131v2.432h28.131V191.915z M340.265,186.994h-28.131v2.431h28.131V186.994z
				 M340.265,182.073h-28.131v2.432h28.131V182.073z M340.265,177.153h-28.131v2.431h28.131V177.153z M340.265,172.232h-28.131
				v2.431h28.131V172.232z M340.265,167.312h-28.131v2.431h28.131V167.312z M340.265,162.391h-28.131v2.431h28.131V162.391z
				 M307.676,221.439h-4.167v233.706h4.167V221.439z M348.891,221.439h-4.169v233.706h4.169V221.439z"/>
		</g>
	</g>
	<g>
		
			<image overflow="visible" opacity="0.4" width="132" height="328" xlink:href="B9A54590.png"  transform="matrix(1 0 0 1 432.5 170)">
		</image>
		<g>
			<path fill="#223C56" d="M530.103,259.098h-7.083v-3.261h4.106v-3.687h-4.106v-13.735h-0.005v-0.014h-6.5h-0.088
				c0.088-0.451,0.088-0.997,0.088-1.453c0-2.087-0.362-4.173-1.088-6.078c-2.185-6.144-7.753-10.499-14.385-11.411v-18.858h-4.82
				v18.858c-6.622,0.926-12.181,5.271-14.361,11.411c-0.728,1.904-1.089,3.991-1.089,6.078c0,0.456,0,1.001,0.088,1.453h-0.088
				h-6.521v0.014v5.09v1.275v5.102v2.268h-4.11v3.687h4.11v3.261h-7.088h-3.685v3.686v6.377v3.687v6.379v3.688v6.378v3.685v6.378
				v3.687v6.38v3.687v6.377v3.688v6.377v3.686v6.379v3.686v6.378v3.687v6.379v3.685v6.381v3.683v6.382v3.686v6.377v3.687V400v3.687
				v6.378v3.688v6.376v3.687v6.379v3.685v6.379v3.687v6.379v3.687v3.273h0.283v10.191h69.742v-10.191h0.285v-3.273v-3.687v-6.379
				v-3.687v-6.379v-3.685v-6.379v-3.687v-6.376v-3.688v-6.378V400v-6.379v-3.687v-6.377v-3.686v-6.382v-3.683v-6.381v-3.685v-6.379
				v-3.687v-6.378v-3.686v-6.379v-3.686v-6.377v-3.688v-6.377v-3.687v-6.38v-3.687v-6.378v-3.685v-6.378v-3.688v-6.379v-3.687
				v-6.377v-3.686H530.103z M519.334,243.506v1.275h-2.818v-1.275H519.334z M485.592,243.506h5.125v1.275h-5.125V243.506z
				 M495.537,243.506h6.214v1.275h-6.214V243.506z M506.572,243.506h5.125v1.275h-5.125V243.506z M477.938,243.506h2.835v1.275
				h-2.835V243.506z M477.938,249.883h41.396v2.268h-41.396V249.883z M477.938,255.837h41.396v3.261h-41.396V255.837z
				 M477.938,450.322v-6.379h41.396v6.379H477.938z M519.334,454.009v3.259h-41.396v-3.259H519.334z M477.938,440.257v-6.379h41.396
				v6.379H477.938z M477.938,430.193v-6.379h41.396v6.379H477.938z M477.938,420.128v-6.376h41.396v6.376H477.938z M477.938,410.064
				v-6.378h41.396v6.378H477.938z M477.938,400v-6.379h41.396V400H477.938z M477.938,389.935v-6.377h41.396v6.377H477.938z
				 M477.938,379.872v-6.382h41.396v6.382H477.938z M477.938,369.808v-6.381h41.396v6.381H477.938z M477.938,359.742v-6.379h41.396
				v6.379H477.938z M477.938,349.677v-6.378h41.396v6.378H477.938z M477.938,339.613v-6.379h41.396v6.379H477.938z M477.938,329.549
				v-6.377h41.396v6.377H477.938z M477.938,319.483v-6.377h41.396v6.377H477.938z M477.938,309.42v-6.38h41.396v6.38H477.938z
				 M477.938,299.354v-6.378h41.396v6.378H477.938z M477.938,289.291v-6.378h41.396v6.378H477.938z M477.938,279.226v-6.379h41.396
				v6.379H477.938z M477.938,269.16v-6.377h41.396v6.377H477.938z M467.164,262.783h7.088v6.377h-7.088V262.783z M467.164,272.847
				h7.088v6.379h-7.088V272.847z M467.164,282.913h7.088v6.378h-7.088V282.913z M467.164,292.976h7.088v6.378h-7.088V292.976z
				 M467.164,303.04h7.088v6.38h-7.088V303.04z M467.164,313.106h7.088v6.377h-7.088V313.106z M467.164,323.172h7.088v6.377h-7.088
				V323.172z M467.164,333.234h7.088v6.379h-7.088V333.234z M467.164,343.299h7.088v6.378h-7.088V343.299z M467.164,353.363h7.088
				v6.379h-7.088V353.363z M467.164,363.427h7.088v6.381h-7.088V363.427z M467.164,373.49h7.088v6.382h-7.088V373.49z
				 M467.164,383.558h7.088v6.377h-7.088V383.558z M467.164,393.621h7.088V400h-7.088V393.621z M467.164,403.687h7.088v6.378h-7.088
				V403.687z M467.164,413.752h7.088v6.376h-7.088V413.752z M467.164,423.814h7.088v6.379h-7.088V423.814z M467.164,433.878h7.088
				v6.379h-7.088V433.878z M467.164,443.943h7.088v6.379h-7.088V443.943z M474.252,454.009v3.259h-7.088v-3.259H474.252z
				 M530.103,457.268h-7.083v-3.259h7.083V457.268z M530.103,450.322h-7.083v-6.379h7.083V450.322z M530.103,440.257h-7.083v-6.379
				h7.083V440.257z M530.103,430.193h-7.083v-6.379h7.083V430.193z M530.103,420.128h-7.083v-6.376h7.083V420.128z M530.103,410.064
				h-7.083v-6.378h7.083V410.064z M530.103,400h-7.083v-6.379h7.083V400z M530.103,389.935h-7.083v-6.377h7.083V389.935z
				 M530.103,379.872h-7.083v-6.382h7.083V379.872z M530.103,369.808h-7.083v-6.381h7.083V369.808z M530.103,359.742h-7.083v-6.379
				h7.083V359.742z M530.103,349.677h-7.083v-6.378h7.083V349.677z M530.103,339.613h-7.083v-6.379h7.083V339.613z M530.103,329.549
				h-7.083v-6.377h7.083V329.549z M530.103,319.483h-7.083v-6.377h7.083V319.483z M530.103,309.42h-7.083v-6.38h7.083V309.42z
				 M530.103,299.354h-7.083v-6.378h7.083V299.354z M530.103,289.291h-7.083v-6.378h7.083V289.291z M530.103,279.226h-7.083v-6.379
				h7.083V279.226z M530.103,269.16h-7.083v-6.377h7.083V269.16z"/>
		</g>
	</g>
	<g>
		
			<image overflow="visible" opacity="0.4" width="510" height="234" xlink:href="D4E31314.png"  transform="matrix(1 0 0 1 467.5 264)">
		</image>
		<g>
			<g>
				<path fill="#223C56" d="M738.083,340.449c0,0,1.673-2.965,1.477-4.293c0,0-6.966-0.722-13.013-4.723v-1.326l1.23-0.508
					c0,0-3.594-1.229-4.001-2.868c0,0,2.803-2.015-1.262-5.669c-4.064,3.654-1.263,5.669-1.263,5.669
					c-0.411,1.64-3.981,2.868-3.981,2.868l1.228,0.508v1.326c-6.047,4.001-13.013,4.723-13.013,4.723
					c-0.214,1.328,1.459,4.293,1.459,4.293h-22.389v127.019h9.277c0,0,0.279-13.65,0-24.847
					c-0.263-11.209,5.474-12.848,5.474-12.848c-3.835-2.46-13.112-13.374-3.279-30.863c9.834-17.484,26.487-22.666,26.487-22.666
					s16.668,5.182,26.502,22.666c9.832,17.489,0.54,28.403-3.277,30.863c0,0,5.733,1.639,5.458,12.848
					c-0.264,11.196,0,24.847,0,24.847h9.291V340.449H738.083z M691.964,347.318h-5.426v-3.18l2.706-1.426l2.72,1.426V347.318z
					 M698.716,347.318h-5.425v-3.18l2.722-1.426l2.703,1.426V347.318z M705.485,347.318h-5.424v-3.18l2.705-1.426l2.72,1.426
					V347.318z M727.167,347.826h-9.292v-4.359l4.64-3.28l4.652,3.28V347.826z M744.983,347.318h-5.424v-3.18l2.704-1.426l2.72,1.426
					V347.318z M751.752,347.318h-5.44v-3.18l2.72-1.426l2.721,1.426V347.318z M758.506,347.318h-5.426v-3.18l2.704-1.426
					l2.722,1.426V347.318z"/>
				<path fill="#223C56" d="M660.239,467.474h-72.045V357.666h72.045V467.474z M597.313,361.756l-3.056-1.582l-3.052,1.582v3.508
					h6.107V361.756z M597.313,366.165h-6.107v5.226h6.107V366.165z M596.671,370.842h-4.825v-4.13h4.825V370.842z M597.313,372.003
					h-6.107v5.227h6.107V372.003z M596.671,376.683h-4.825v-4.132h4.825V376.683z M597.313,377.843h-6.107v5.225h6.107V377.843z
					 M596.671,382.52h-4.825v-4.13h4.825V382.52z M597.313,383.682h-6.107v5.225h6.107V383.682z M596.671,388.357h-4.825v-4.128
					h4.825V388.357z M597.313,389.521h-6.107v5.224h6.107V389.521z M596.671,394.198h-4.825v-4.129h4.825V394.198z M597.313,395.358
					h-6.107v5.223h6.107V395.358z M596.671,400.034h-4.825v-4.128h4.825V400.034z M597.313,401.197h-6.107v5.225h6.107V401.197z
					 M596.671,405.875h-4.825v-4.129h4.825V405.875z M597.313,407.037h-6.107v5.224h6.107V407.037z M596.671,411.715h-4.825v-4.13
					h4.825V411.715z M597.313,412.876h-6.107v5.223h6.107V412.876z M596.671,417.551h-4.825v-4.128h4.825V417.551z M597.313,418.715
					h-6.107v5.224h6.107V418.715z M596.671,423.391h-4.825v-4.129h4.825V423.391z M597.313,424.551h-6.107v5.227h6.107V424.551z
					 M596.671,429.229h-4.825v-4.13h4.825V429.229z M597.313,430.393h-6.107v5.223h6.107V430.393z M596.671,435.068h-4.825v-4.13
					h4.825V435.068z M597.313,436.23h-6.107v5.226h6.107V436.23z M596.671,440.909h-4.825v-4.132h4.825V440.909z M603.936,361.756
					l-3.054-1.582l-3.053,1.582v3.508h6.107V361.756z M603.936,366.165h-6.107v5.226h6.107V366.165z M603.295,370.842h-4.828v-4.13
					h4.828V370.842z M603.936,372.003h-6.107v5.227h6.107V372.003z M603.295,376.683h-4.828v-4.132h4.828V376.683z M603.936,377.843
					h-6.107v5.225h6.107V377.843z M603.295,382.52h-4.828v-4.13h4.828V382.52z M603.936,383.682h-6.107v5.225h6.107V383.682z
					 M603.295,388.357h-4.828v-4.128h4.828V388.357z M603.936,389.521h-6.107v5.224h6.107V389.521z M603.295,394.198h-4.828v-4.129
					h4.828V394.198z M603.936,395.358h-6.107v5.223h6.107V395.358z M603.295,400.034h-4.828v-4.128h4.828V400.034z M603.936,401.197
					h-6.107v5.225h6.107V401.197z M603.295,405.875h-4.828v-4.129h4.828V405.875z M603.936,407.037h-6.107v5.224h6.107V407.037z
					 M603.295,411.715h-4.828v-4.13h4.828V411.715z M603.936,412.876h-6.107v5.223h6.107V412.876z M603.295,417.551h-4.828v-4.128
					h4.828V417.551z M603.936,418.715h-6.107v5.224h6.107V418.715z M603.295,423.391h-4.828v-4.129h4.828V423.391z M603.936,424.551
					h-6.107v5.227h6.107V424.551z M603.295,429.229h-4.828v-4.13h4.828V429.229z M603.936,430.393h-6.107v5.223h6.107V430.393z
					 M603.295,435.068h-4.828v-4.13h4.828V435.068z M603.936,436.23h-6.107v5.226h6.107V436.23z M603.295,440.909h-4.828v-4.132
					h4.828V440.909z M610.559,361.756l-3.055-1.582l-3.054,1.582v3.508h6.109V361.756z M610.559,366.165h-6.109v5.226h6.109V366.165
					z M609.917,370.842h-4.825v-4.13h4.825V370.842z M610.559,372.003h-6.109v5.227h6.109V372.003z M609.917,376.683h-4.825v-4.132
					h4.825V376.683z M610.559,377.843h-6.109v5.225h6.109V377.843z M609.917,382.52h-4.825v-4.13h4.825V382.52z M610.559,383.682
					h-6.109v5.225h6.109V383.682z M609.917,388.357h-4.825v-4.128h4.825V388.357z M610.559,389.521h-6.109v5.224h6.109V389.521z
					 M609.917,394.198h-4.825v-4.129h4.825V394.198z M610.559,395.358h-6.109v5.223h6.109V395.358z M609.917,400.034h-4.825v-4.128
					h4.825V400.034z M610.559,401.197h-6.109v5.225h6.109V401.197z M609.917,405.875h-4.825v-4.129h4.825V405.875z M610.559,407.037
					h-6.109v5.224h6.109V407.037z M609.917,411.715h-4.825v-4.13h4.825V411.715z M610.559,412.876h-6.109v5.223h6.109V412.876z
					 M609.917,417.551h-4.825v-4.128h4.825V417.551z M610.559,418.715h-6.109v5.224h6.109V418.715z M609.917,423.391h-4.825v-4.129
					h4.825V423.391z M610.559,424.551h-6.109v5.227h6.109V424.551z M609.917,429.229h-4.825v-4.13h4.825V429.229z M610.559,430.393
					h-6.109v5.223h6.109V430.393z M609.917,435.068h-4.825v-4.13h4.825V435.068z M610.559,436.23h-6.109v5.226h6.109V436.23z
					 M609.917,440.909h-4.825v-4.132h4.825V440.909z M617.182,361.756l-3.055-1.582l-3.051,1.582v3.508h6.106V361.756z
					 M617.182,366.165h-6.106v5.226h6.106V366.165z M616.542,370.842h-4.827v-4.13h4.827V370.842z M617.182,372.003h-6.106v5.227
					h6.106V372.003z M616.542,376.683h-4.827v-4.132h4.827V376.683z M617.182,377.843h-6.106v5.225h6.106V377.843z M616.542,382.52
					h-4.827v-4.13h4.827V382.52z M617.182,383.682h-6.106v5.225h6.106V383.682z M616.542,388.357h-4.827v-4.128h4.827V388.357z
					 M617.182,389.521h-6.106v5.224h6.106V389.521z M616.542,394.198h-4.827v-4.129h4.827V394.198z M617.182,395.358h-6.106v5.223
					h6.106V395.358z M616.542,400.034h-4.827v-4.128h4.827V400.034z M617.182,401.197h-6.106v5.225h6.106V401.197z M616.542,405.875
					h-4.827v-4.129h4.827V405.875z M617.182,407.037h-6.106v5.224h6.106V407.037z M616.542,411.715h-4.827v-4.13h4.827V411.715z
					 M617.182,412.876h-6.106v5.223h6.106V412.876z M616.542,417.551h-4.827v-4.128h4.827V417.551z M617.182,418.715h-6.106v5.224
					h6.106V418.715z M616.542,423.391h-4.827v-4.129h4.827V423.391z M617.182,424.551h-6.106v5.227h6.106V424.551z M616.542,429.229
					h-4.827v-4.13h4.827V429.229z M617.182,430.393h-6.106v5.223h6.106V430.393z M616.542,435.068h-4.827v-4.13h4.827V435.068z
					 M617.182,436.23h-6.106v5.226h6.106V436.23z M616.542,440.909h-4.827v-4.132h4.827V440.909z M623.807,361.756l-3.054-1.582
					l-3.054,1.582v3.508h6.107V361.756z M623.807,366.165h-6.107v5.226h6.107V366.165z M623.166,370.842h-4.826v-4.13h4.826V370.842
					z M623.807,372.003h-6.107v5.227h6.107V372.003z M623.166,376.683h-4.826v-4.132h4.826V376.683z M623.807,377.843h-6.107v5.225
					h6.107V377.843z M623.166,382.52h-4.826v-4.13h4.826V382.52z M623.807,383.682h-6.107v5.225h6.107V383.682z M623.166,388.357
					h-4.826v-4.128h4.826V388.357z M623.807,389.521h-6.107v5.224h6.107V389.521z M623.166,394.198h-4.826v-4.129h4.826V394.198z
					 M623.807,395.358h-6.107v5.223h6.107V395.358z M623.166,400.034h-4.826v-4.128h4.826V400.034z M623.807,401.197h-6.107v5.225
					h6.107V401.197z M623.166,405.875h-4.826v-4.129h4.826V405.875z M623.807,407.037h-6.107v5.224h6.107V407.037z M623.166,411.715
					h-4.826v-4.13h4.826V411.715z M623.807,412.876h-6.107v5.223h6.107V412.876z M623.166,417.551h-4.826v-4.128h4.826V417.551z
					 M623.807,418.715h-6.107v5.224h6.107V418.715z M623.166,423.391h-4.826v-4.129h4.826V423.391z M623.807,424.551h-6.107v5.227
					h6.107V424.551z M623.166,429.229h-4.826v-4.13h4.826V429.229z M623.807,430.393h-6.107v5.223h6.107V430.393z M623.166,435.068
					h-4.826v-4.13h4.826V435.068z M623.807,436.23h-6.107v5.226h6.107V436.23z M623.166,440.909h-4.826v-4.132h4.826V440.909z
					 M630.43,361.756l-3.053-1.582l-3.054,1.582v3.508h6.107V361.756z M630.43,366.165h-6.107v5.226h6.107V366.165z
					 M629.792,370.842h-4.829v-4.13h4.829V370.842z M630.43,372.003h-6.107v5.227h6.107V372.003z M629.792,376.683h-4.829v-4.132
					h4.829V376.683z M630.43,377.843h-6.107v5.225h6.107V377.843z M629.792,382.52h-4.829v-4.13h4.829V382.52z M630.43,383.682
					h-6.107v5.225h6.107V383.682z M629.792,388.357h-4.829v-4.128h4.829V388.357z M630.43,389.521h-6.107v5.224h6.107V389.521z
					 M629.792,394.198h-4.829v-4.129h4.829V394.198z M630.43,395.358h-6.107v5.223h6.107V395.358z M629.792,400.034h-4.829v-4.128
					h4.829V400.034z M630.43,401.197h-6.107v5.225h6.107V401.197z M629.792,405.875h-4.829v-4.129h4.829V405.875z M630.43,407.037
					h-6.107v5.224h6.107V407.037z M629.792,411.715h-4.829v-4.13h4.829V411.715z M630.43,412.876h-6.107v5.223h6.107V412.876z
					 M629.792,417.551h-4.829v-4.128h4.829V417.551z M630.43,418.715h-6.107v5.224h6.107V418.715z M629.792,423.391h-4.829v-4.129
					h4.829V423.391z M630.43,424.551h-6.107v5.227h6.107V424.551z M629.792,429.229h-4.829v-4.13h4.829V429.229z M630.43,430.393
					h-6.107v5.223h6.107V430.393z M629.792,435.068h-4.829v-4.13h4.829V435.068z M630.43,436.23h-6.107v5.226h6.107V436.23z
					 M629.792,440.909h-4.829v-4.132h4.829V440.909z M637.054,361.756L634,360.174l-3.056,1.582v3.508h6.109V361.756z
					 M637.054,366.165h-6.109v5.226h6.109V366.165z M636.413,370.842h-4.827v-4.13h4.827V370.842z M637.054,372.003h-6.109v5.227
					h6.109V372.003z M636.413,376.683h-4.827v-4.132h4.827V376.683z M637.054,377.843h-6.109v5.225h6.109V377.843z M636.413,382.52
					h-4.827v-4.13h4.827V382.52z M637.054,383.682h-6.109v5.225h6.109V383.682z M636.413,388.357h-4.827v-4.128h4.827V388.357z
					 M637.054,389.521h-6.109v5.224h6.109V389.521z M636.413,394.198h-4.827v-4.129h4.827V394.198z M637.054,395.358h-6.109v5.223
					h6.109V395.358z M636.413,400.034h-4.827v-4.128h4.827V400.034z M637.054,401.197h-6.109v5.225h6.109V401.197z M636.413,405.875
					h-4.827v-4.129h4.827V405.875z M637.054,407.037h-6.109v5.224h6.109V407.037z M636.413,411.715h-4.827v-4.13h4.827V411.715z
					 M637.054,412.876h-6.109v5.223h6.109V412.876z M636.413,417.551h-4.827v-4.128h4.827V417.551z M637.054,418.715h-6.109v5.224
					h6.109V418.715z M636.413,423.391h-4.827v-4.129h4.827V423.391z M637.054,424.551h-6.109v5.227h6.109V424.551z M636.413,429.229
					h-4.827v-4.13h4.827V429.229z M637.054,430.393h-6.109v5.223h6.109V430.393z M636.413,435.068h-4.827v-4.13h4.827V435.068z
					 M637.054,436.23h-6.109v5.226h6.109V436.23z M636.413,440.909h-4.827v-4.132h4.827V440.909z M643.676,361.756l-3.052-1.582
					l-3.053,1.582v3.508h6.105V361.756z M643.676,366.165h-6.105v5.226h6.105V366.165z M643.037,370.842h-4.826v-4.13h4.826V370.842
					z M643.676,372.003h-6.105v5.227h6.105V372.003z M643.037,376.683h-4.826v-4.132h4.826V376.683z M643.676,377.843h-6.105v5.225
					h6.105V377.843z M643.037,382.52h-4.826v-4.13h4.826V382.52z M643.676,383.682h-6.105v5.225h6.105V383.682z M643.037,388.357
					h-4.826v-4.128h4.826V388.357z M643.676,389.521h-6.105v5.224h6.105V389.521z M643.037,394.198h-4.826v-4.129h4.826V394.198z
					 M643.676,395.358h-6.105v5.223h6.105V395.358z M643.037,400.034h-4.826v-4.128h4.826V400.034z M643.676,401.197h-6.105v5.225
					h6.105V401.197z M643.037,405.875h-4.826v-4.129h4.826V405.875z M643.676,407.037h-6.105v5.224h6.105V407.037z M643.037,411.715
					h-4.826v-4.13h4.826V411.715z M643.676,412.876h-6.105v5.223h6.105V412.876z M643.037,417.551h-4.826v-4.128h4.826V417.551z
					 M643.676,418.715h-6.105v5.224h6.105V418.715z M643.037,423.391h-4.826v-4.129h4.826V423.391z M643.676,424.551h-6.105v5.227
					h6.105V424.551z M643.037,429.229h-4.826v-4.13h4.826V429.229z M643.676,430.393h-6.105v5.223h6.105V430.393z M643.037,435.068
					h-4.826v-4.13h4.826V435.068z M643.676,436.23h-6.105v5.226h6.105V436.23z M643.037,440.909h-4.826v-4.132h4.826V440.909z
					 M650.302,361.756l-3.054-1.582l-3.051,1.582v3.508h6.105V361.756z M650.302,366.165h-6.105v5.226h6.105V366.165z
					 M649.661,370.842h-4.825v-4.13h4.825V370.842z M650.302,372.003h-6.105v5.227h6.105V372.003z M649.661,376.683h-4.825v-4.132
					h4.825V376.683z M650.302,377.843h-6.105v5.225h6.105V377.843z M649.661,382.52h-4.825v-4.13h4.825V382.52z M650.302,383.682
					h-6.105v5.225h6.105V383.682z M649.661,388.357h-4.825v-4.128h4.825V388.357z M650.302,389.521h-6.105v5.224h6.105V389.521z
					 M649.661,394.198h-4.825v-4.129h4.825V394.198z M650.302,395.358h-6.105v5.223h6.105V395.358z M649.661,400.034h-4.825v-4.128
					h4.825V400.034z M650.302,401.197h-6.105v5.225h6.105V401.197z M649.661,405.875h-4.825v-4.129h4.825V405.875z M650.302,407.037
					h-6.105v5.224h6.105V407.037z M649.661,411.715h-4.825v-4.13h4.825V411.715z M650.302,412.876h-6.105v5.223h6.105V412.876z
					 M649.661,417.551h-4.825v-4.128h4.825V417.551z M650.302,418.715h-6.105v5.224h6.105V418.715z M649.661,423.391h-4.825v-4.129
					h4.825V423.391z M650.302,424.551h-6.105v5.227h6.105V424.551z M649.661,429.229h-4.825v-4.13h4.825V429.229z M650.302,430.393
					h-6.105v5.223h6.105V430.393z M649.661,435.068h-4.825v-4.13h4.825V435.068z M650.302,436.23h-6.105v5.226h6.105V436.23z
					 M649.661,440.909h-4.825v-4.132h4.825V440.909z M656.927,361.756l-3.055-1.582l-3.054,1.582v3.508h6.109V361.756z
					 M656.927,366.165h-6.109v5.226h6.109V366.165z M656.286,370.842h-4.826v-4.13h4.826V370.842z M656.927,372.003h-6.109v5.227
					h6.109V372.003z M656.286,376.683h-4.826v-4.132h4.826V376.683z M656.927,377.843h-6.109v5.225h6.109V377.843z M656.286,382.52
					h-4.826v-4.13h4.826V382.52z M656.927,383.682h-6.109v5.225h6.109V383.682z M656.286,388.357h-4.826v-4.128h4.826V388.357z
					 M656.927,389.521h-6.109v5.224h6.109V389.521z M656.286,394.198h-4.826v-4.129h4.826V394.198z M656.927,395.358h-6.109v5.223
					h6.109V395.358z M656.286,400.034h-4.826v-4.128h4.826V400.034z M656.927,401.197h-6.109v5.225h6.109V401.197z M656.286,405.875
					h-4.826v-4.129h4.826V405.875z M656.927,407.037h-6.109v5.224h6.109V407.037z M656.286,411.715h-4.826v-4.13h4.826V411.715z
					 M656.927,412.876h-6.109v5.223h6.109V412.876z M656.286,417.551h-4.826v-4.128h4.826V417.551z M656.927,418.715h-6.109v5.224
					h6.109V418.715z M656.286,423.391h-4.826v-4.129h4.826V423.391z M656.927,424.551h-6.109v5.227h6.109V424.551z M656.286,429.229
					h-4.826v-4.13h4.826V429.229z M656.927,430.393h-6.109v5.223h6.109V430.393z M656.286,435.068h-4.826v-4.13h4.826V435.068z
					 M656.927,436.23h-6.109v5.226h6.109V436.23z M656.286,440.909h-4.826v-4.132h4.826V440.909z"/>
				<path fill="#223C56" d="M565.836,467.474h-49.869v-76.008h49.869V467.474z M522.279,394.297l-2.113-1.091l-2.113,1.091v2.431
					h4.226V394.297z M522.279,397.352h-4.226v3.616h4.226V397.352z M521.838,400.587h-3.342v-2.857h3.342V400.587z M522.279,401.395
					h-4.226v3.614h4.226V401.395z M521.838,404.63h-3.342v-2.858h3.342V404.63z M522.279,405.437h-4.226v3.614h4.226V405.437z
					 M521.838,408.672h-3.342v-2.859h3.342V408.672z M522.279,409.478h-4.226v3.615h4.226V409.478z M521.838,412.713h-3.342v-2.857
					h3.342V412.713z M522.279,413.517h-4.226v3.615h4.226V413.517z M521.838,416.753h-3.342v-2.858h3.342V416.753z M522.279,417.559
					h-4.226v3.616h4.226V417.559z M521.838,420.795h-3.342v-2.856h3.342V420.795z M522.279,421.601h-4.226v3.615h4.226V421.601z
					 M521.838,424.837h-3.342v-2.858h3.342V424.837z M522.279,425.641h-4.226v3.617h4.226V425.641z M521.838,428.878h-3.342v-2.858
					h3.342V428.878z M522.279,429.683h-4.226v3.617h4.226V429.683z M521.838,432.92h-3.342v-2.858h3.342V432.92z M522.279,433.727
					h-4.226v3.613h4.226V433.727z M521.838,436.96h-3.342v-2.858h3.342V436.96z M522.279,437.766h-4.226v3.616h4.226V437.766z
					 M521.838,441.002h-3.342v-2.858h3.342V441.002z M522.279,441.809h-4.226v3.614h4.226V441.809z M521.838,445.043h-3.342v-2.857
					h3.342V445.043z M522.279,445.848h-4.226v3.615h4.226V445.848z M521.838,449.086h-3.342v-2.858h3.342V449.086z M526.864,394.297
					l-2.112-1.091l-2.113,1.091v2.431h4.226V394.297z M526.864,397.352h-4.226v3.616h4.226V397.352z M526.421,400.587h-3.34v-2.857
					h3.34V400.587z M526.864,401.395h-4.226v3.614h4.226V401.395z M526.421,404.63h-3.34v-2.858h3.34V404.63z M526.864,405.437
					h-4.226v3.614h4.226V405.437z M526.421,408.672h-3.34v-2.859h3.34V408.672z M526.864,409.478h-4.226v3.615h4.226V409.478z
					 M526.421,412.713h-3.34v-2.857h3.34V412.713z M526.864,413.517h-4.226v3.615h4.226V413.517z M526.421,416.753h-3.34v-2.858
					h3.34V416.753z M526.864,417.559h-4.226v3.616h4.226V417.559z M526.421,420.795h-3.34v-2.856h3.34V420.795z M526.864,421.601
					h-4.226v3.615h4.226V421.601z M526.421,424.837h-3.34v-2.858h3.34V424.837z M526.864,425.641h-4.226v3.617h4.226V425.641z
					 M526.421,428.878h-3.34v-2.858h3.34V428.878z M526.864,429.683h-4.226v3.617h4.226V429.683z M526.421,432.92h-3.34v-2.858h3.34
					V432.92z M526.864,433.727h-4.226v3.613h4.226V433.727z M526.421,436.96h-3.34v-2.858h3.34V436.96z M526.864,437.766h-4.226
					v3.616h4.226V437.766z M526.421,441.002h-3.34v-2.858h3.34V441.002z M526.864,441.809h-4.226v3.614h4.226V441.809z
					 M526.421,445.043h-3.34v-2.857h3.34V445.043z M526.864,445.848h-4.226v3.615h4.226V445.848z M526.421,449.086h-3.34v-2.858
					h3.34V449.086z M531.448,394.297l-2.113-1.091l-2.115,1.091v2.431h4.228V394.297z M531.448,397.352h-4.228v3.616h4.228V397.352z
					 M531.006,400.587h-3.338v-2.857h3.338V400.587z M531.448,401.395h-4.228v3.614h4.228V401.395z M531.006,404.63h-3.338v-2.858
					h3.338V404.63z M531.448,405.437h-4.228v3.614h4.228V405.437z M531.006,408.672h-3.338v-2.859h3.338V408.672z M531.448,409.478
					h-4.228v3.615h4.228V409.478z M531.006,412.713h-3.338v-2.857h3.338V412.713z M531.448,413.517h-4.228v3.615h4.228V413.517z
					 M531.006,416.753h-3.338v-2.858h3.338V416.753z M531.448,417.559h-4.228v3.616h4.228V417.559z M531.006,420.795h-3.338v-2.856
					h3.338V420.795z M531.448,421.601h-4.228v3.615h4.228V421.601z M531.006,424.837h-3.338v-2.858h3.338V424.837z M531.448,425.641
					h-4.228v3.617h4.228V425.641z M531.006,428.878h-3.338v-2.858h3.338V428.878z M531.448,429.683h-4.228v3.617h4.228V429.683z
					 M531.006,432.92h-3.338v-2.858h3.338V432.92z M531.448,433.727h-4.228v3.613h4.228V433.727z M531.006,436.96h-3.338v-2.858
					h3.338V436.96z M531.448,437.766h-4.228v3.616h4.228V437.766z M531.006,441.002h-3.338v-2.858h3.338V441.002z M531.448,441.809
					h-4.228v3.614h4.228V441.809z M531.006,445.043h-3.338v-2.857h3.338V445.043z M531.448,445.848h-4.228v3.615h4.228V445.848z
					 M531.006,449.086h-3.338v-2.858h3.338V449.086z M536.035,394.297l-2.116-1.091l-2.114,1.091v2.431h4.229V394.297z
					 M536.035,397.352h-4.229v3.616h4.229V397.352z M535.591,400.587h-3.34v-2.857h3.34V400.587z M536.035,401.395h-4.229v3.614
					h4.229V401.395z M535.591,404.63h-3.34v-2.858h3.34V404.63z M536.035,405.437h-4.229v3.614h4.229V405.437z M535.591,408.672
					h-3.34v-2.859h3.34V408.672z M536.035,409.478h-4.229v3.615h4.229V409.478z M535.591,412.713h-3.34v-2.857h3.34V412.713z
					 M536.035,413.517h-4.229v3.615h4.229V413.517z M535.591,416.753h-3.34v-2.858h3.34V416.753z M536.035,417.559h-4.229v3.616
					h4.229V417.559z M535.591,420.795h-3.34v-2.856h3.34V420.795z M536.035,421.601h-4.229v3.615h4.229V421.601z M535.591,424.837
					h-3.34v-2.858h3.34V424.837z M536.035,425.641h-4.229v3.617h4.229V425.641z M535.591,428.878h-3.34v-2.858h3.34V428.878z
					 M536.035,429.683h-4.229v3.617h4.229V429.683z M535.591,432.92h-3.34v-2.858h3.34V432.92z M536.035,433.727h-4.229v3.613h4.229
					V433.727z M535.591,436.96h-3.34v-2.858h3.34V436.96z M536.035,437.766h-4.229v3.616h4.229V437.766z M535.591,441.002h-3.34
					v-2.858h3.34V441.002z M536.035,441.809h-4.229v3.614h4.229V441.809z M535.591,445.043h-3.34v-2.857h3.34V445.043z
					 M536.035,445.848h-4.229v3.615h4.229V445.848z M535.591,449.086h-3.34v-2.858h3.34V449.086z M540.617,394.297l-2.11-1.091
					l-2.113,1.091v2.431h4.224V394.297z M540.617,397.352h-4.224v3.616h4.224V397.352z M540.177,400.587h-3.341v-2.857h3.341
					V400.587z M540.617,401.395h-4.224v3.614h4.224V401.395z M540.177,404.63h-3.341v-2.858h3.341V404.63z M540.617,405.437h-4.224
					v3.614h4.224V405.437z M540.177,408.672h-3.341v-2.859h3.341V408.672z M540.617,409.478h-4.224v3.615h4.224V409.478z
					 M540.177,412.713h-3.341v-2.857h3.341V412.713z M540.617,413.517h-4.224v3.615h4.224V413.517z M540.177,416.753h-3.341v-2.858
					h3.341V416.753z M540.617,417.559h-4.224v3.616h4.224V417.559z M540.177,420.795h-3.341v-2.856h3.341V420.795z M540.617,421.601
					h-4.224v3.615h4.224V421.601z M540.177,424.837h-3.341v-2.858h3.341V424.837z M540.617,425.641h-4.224v3.617h4.224V425.641z
					 M540.177,428.878h-3.341v-2.858h3.341V428.878z M540.617,429.683h-4.224v3.617h4.224V429.683z M540.177,432.92h-3.341v-2.858
					h3.341V432.92z M540.617,433.727h-4.224v3.613h4.224V433.727z M540.177,436.96h-3.341v-2.858h3.341V436.96z M540.617,437.766
					h-4.224v3.616h4.224V437.766z M540.177,441.002h-3.341v-2.858h3.341V441.002z M540.617,441.809h-4.224v3.614h4.224V441.809z
					 M540.177,445.043h-3.341v-2.857h3.341V445.043z M540.617,445.848h-4.224v3.615h4.224V445.848z M540.177,449.086h-3.341v-2.858
					h3.341V449.086z M545.204,394.297l-2.115-1.091l-2.112,1.091v2.431h4.227V394.297z M545.204,397.352h-4.227v3.616h4.227V397.352
					z M544.761,400.587h-3.341v-2.857h3.341V400.587z M545.204,401.395h-4.227v3.614h4.227V401.395z M544.761,404.63h-3.341v-2.858
					h3.341V404.63z M545.204,405.437h-4.227v3.614h4.227V405.437z M544.761,408.672h-3.341v-2.859h3.341V408.672z M545.204,409.478
					h-4.227v3.615h4.227V409.478z M544.761,412.713h-3.341v-2.857h3.341V412.713z M545.204,413.517h-4.227v3.615h4.227V413.517z
					 M544.761,416.753h-3.341v-2.858h3.341V416.753z M545.204,417.559h-4.227v3.616h4.227V417.559z M544.761,420.795h-3.341v-2.856
					h3.341V420.795z M545.204,421.601h-4.227v3.615h4.227V421.601z M544.761,424.837h-3.341v-2.858h3.341V424.837z M545.204,425.641
					h-4.227v3.617h4.227V425.641z M544.761,428.878h-3.341v-2.858h3.341V428.878z M545.204,429.683h-4.227v3.617h4.227V429.683z
					 M544.761,432.92h-3.341v-2.858h3.341V432.92z M545.204,433.727h-4.227v3.613h4.227V433.727z M544.761,436.96h-3.341v-2.858
					h3.341V436.96z M545.204,437.766h-4.227v3.616h4.227V437.766z M544.761,441.002h-3.341v-2.858h3.341V441.002z M545.204,441.809
					h-4.227v3.614h4.227V441.809z M544.761,445.043h-3.341v-2.857h3.341V445.043z M545.204,445.848h-4.227v3.615h4.227V445.848z
					 M544.761,449.086h-3.341v-2.858h3.341V449.086z M549.789,394.297l-2.114-1.091l-2.115,1.091v2.431h4.229V394.297z
					 M549.789,397.352h-4.229v3.616h4.229V397.352z M549.344,400.587h-3.339v-2.857h3.339V400.587z M549.789,401.395h-4.229v3.614
					h4.229V401.395z M549.344,404.63h-3.339v-2.858h3.339V404.63z M549.789,405.437h-4.229v3.614h4.229V405.437z M549.344,408.672
					h-3.339v-2.859h3.339V408.672z M549.789,409.478h-4.229v3.615h4.229V409.478z M549.344,412.713h-3.339v-2.857h3.339V412.713z
					 M549.789,413.517h-4.229v3.615h4.229V413.517z M549.344,416.753h-3.339v-2.858h3.339V416.753z M549.789,417.559h-4.229v3.616
					h4.229V417.559z M549.344,420.795h-3.339v-2.856h3.339V420.795z M549.789,421.601h-4.229v3.615h4.229V421.601z M549.344,424.837
					h-3.339v-2.858h3.339V424.837z M549.789,425.641h-4.229v3.617h4.229V425.641z M549.344,428.878h-3.339v-2.858h3.339V428.878z
					 M549.789,429.683h-4.229v3.617h4.229V429.683z M549.344,432.92h-3.339v-2.858h3.339V432.92z M549.789,433.727h-4.229v3.613
					h4.229V433.727z M549.344,436.96h-3.339v-2.858h3.339V436.96z M549.789,437.766h-4.229v3.616h4.229V437.766z M549.344,441.002
					h-3.339v-2.858h3.339V441.002z M549.789,441.809h-4.229v3.614h4.229V441.809z M549.344,445.043h-3.339v-2.857h3.339V445.043z
					 M549.789,445.848h-4.229v3.615h4.229V445.848z M549.344,449.086h-3.339v-2.858h3.339V449.086z M554.375,394.297l-2.115-1.091
					l-2.114,1.091v2.431h4.229V394.297z M554.375,397.352h-4.229v3.616h4.229V397.352z M553.93,400.587h-3.339v-2.857h3.339V400.587
					z M554.375,401.395h-4.229v3.614h4.229V401.395z M553.93,404.63h-3.339v-2.858h3.339V404.63z M554.375,405.437h-4.229v3.614
					h4.229V405.437z M553.93,408.672h-3.339v-2.859h3.339V408.672z M554.375,409.478h-4.229v3.615h4.229V409.478z M553.93,412.713
					h-3.339v-2.857h3.339V412.713z M554.375,413.517h-4.229v3.615h4.229V413.517z M553.93,416.753h-3.339v-2.858h3.339V416.753z
					 M554.375,417.559h-4.229v3.616h4.229V417.559z M553.93,420.795h-3.339v-2.856h3.339V420.795z M554.375,421.601h-4.229v3.615
					h4.229V421.601z M553.93,424.837h-3.339v-2.858h3.339V424.837z M554.375,425.641h-4.229v3.617h4.229V425.641z M553.93,428.878
					h-3.339v-2.858h3.339V428.878z M554.375,429.683h-4.229v3.617h4.229V429.683z M553.93,432.92h-3.339v-2.858h3.339V432.92z
					 M554.375,433.727h-4.229v3.613h4.229V433.727z M553.93,436.96h-3.339v-2.858h3.339V436.96z M554.375,437.766h-4.229v3.616
					h4.229V437.766z M553.93,441.002h-3.339v-2.858h3.339V441.002z M554.375,441.809h-4.229v3.614h4.229V441.809z M553.93,445.043
					h-3.339v-2.857h3.339V445.043z M554.375,445.848h-4.229v3.615h4.229V445.848z M553.93,449.086h-3.339v-2.858h3.339V449.086z
					 M558.957,394.297l-2.113-1.091l-2.113,1.091v2.431h4.226V394.297z M558.957,397.352h-4.226v3.616h4.226V397.352z
					 M558.515,400.587h-3.34v-2.857h3.34V400.587z M558.957,401.395h-4.226v3.614h4.226V401.395z M558.515,404.63h-3.34v-2.858h3.34
					V404.63z M558.957,405.437h-4.226v3.614h4.226V405.437z M558.515,408.672h-3.34v-2.859h3.34V408.672z M558.957,409.478h-4.226
					v3.615h4.226V409.478z M558.515,412.713h-3.34v-2.857h3.34V412.713z M558.957,413.517h-4.226v3.615h4.226V413.517z
					 M558.515,416.753h-3.34v-2.858h3.34V416.753z M558.957,417.559h-4.226v3.616h4.226V417.559z M558.515,420.795h-3.34v-2.856
					h3.34V420.795z M558.957,421.601h-4.226v3.615h4.226V421.601z M558.515,424.837h-3.34v-2.858h3.34V424.837z M558.957,425.641
					h-4.226v3.617h4.226V425.641z M558.515,428.878h-3.34v-2.858h3.34V428.878z M558.957,429.683h-4.226v3.617h4.226V429.683z
					 M558.515,432.92h-3.34v-2.858h3.34V432.92z M558.957,433.727h-4.226v3.613h4.226V433.727z M558.515,436.96h-3.34v-2.858h3.34
					V436.96z M558.957,437.766h-4.226v3.616h4.226V437.766z M558.515,441.002h-3.34v-2.858h3.34V441.002z M558.957,441.809h-4.226
					v3.614h4.226V441.809z M558.515,445.043h-3.34v-2.857h3.34V445.043z M558.957,445.848h-4.226v3.615h4.226V445.848z
					 M558.515,449.086h-3.34v-2.858h3.34V449.086z M563.542,394.297l-2.114-1.091l-2.112,1.091v2.431h4.226V394.297z
					 M563.542,397.352h-4.226v3.616h4.226V397.352z M563.101,400.587h-3.343v-2.857h3.343V400.587z M563.542,401.395h-4.226v3.614
					h4.226V401.395z M563.101,404.63h-3.343v-2.858h3.343V404.63z M563.542,405.437h-4.226v3.614h4.226V405.437z M563.101,408.672
					h-3.343v-2.859h3.343V408.672z M563.542,409.478h-4.226v3.615h4.226V409.478z M563.101,412.713h-3.343v-2.857h3.343V412.713z
					 M563.542,413.517h-4.226v3.615h4.226V413.517z M563.101,416.753h-3.343v-2.858h3.343V416.753z M563.542,417.559h-4.226v3.616
					h4.226V417.559z M563.101,420.795h-3.343v-2.856h3.343V420.795z M563.542,421.601h-4.226v3.615h4.226V421.601z M563.101,424.837
					h-3.343v-2.858h3.343V424.837z M563.542,425.641h-4.226v3.617h4.226V425.641z M563.101,428.878h-3.343v-2.858h3.343V428.878z
					 M563.542,429.683h-4.226v3.617h4.226V429.683z M563.101,432.92h-3.343v-2.858h3.343V432.92z M563.542,433.727h-4.226v3.613
					h4.226V433.727z M563.101,436.96h-3.343v-2.858h3.343V436.96z M563.542,437.766h-4.226v3.616h4.226V437.766z M563.101,441.002
					h-3.343v-2.858h3.343V441.002z M563.542,441.809h-4.226v3.614h4.226V441.809z M563.101,445.043h-3.343v-2.857h3.343V445.043z
					 M563.542,445.848h-4.226v3.615h4.226V445.848z M563.101,449.086h-3.343v-2.858h3.343V449.086z"/>
				<path fill="#223C56" d="M684.555,443.985V333.619l3.411-3.409h-3.69l2.182-3.229h-5.999c0,0,0.212-4.014-3.82-7.767l3.556-1.837
					h-1.917l1.573-2.327h-3.212l1.918-1.769c0,0-5.736-2.05-6.146-4.378c-0.41-2.326,0-4.377,0-4.377l1.754-1.49h-2.246
					l-0.476-8.195l-0.475,8.195h-2.246l1.753,1.49c0,0,0.41,2.051,0,4.377c-0.409,2.328-6.145,4.378-6.145,4.378l1.917,1.769h-3.212
					l1.573,2.327h-1.917l3.556,1.837c-4.032,3.753-3.82,7.767-3.82,7.767h-6.015l2.179,3.229h-3.687l3.426,3.409v110.366h-4.098
					l3.541,3.541v19.946h27.322v-19.946l3.556-3.541H684.555z M671.445,310.067l2.113,4.442h-4.228L671.445,310.067z
					 M677.723,444.527h-12.571V340.455l6.293-4.639l6.278,4.639V444.527z M674.155,326.984h-5.429v-4.082l2.713-1.843l2.716,1.843
					V326.984z M676.495,441.043h-10.117v-98.495l5.065-3.732l5.052,3.732V441.043z"/>
				<path fill="#223C56" d="M588.193,447.294v-94.827l2.929-2.929h-3.17l1.874-2.772h-5.153c0,0,0.182-3.452-3.282-6.677l3.056-1.58
					h-1.647l1.351-1.997h-2.76l1.646-1.523c0,0-4.928-1.757-5.28-3.759c-0.351-2.001,0-3.758,0-3.758l1.508-1.281h-1.931
					l-0.408-7.044l-0.407,7.044h-1.93l1.507,1.281c0,0,0.352,1.757,0,3.758c-0.354,2.002-5.281,3.759-5.281,3.759l1.646,1.523
					h-2.759l1.352,1.997h-1.647l3.054,1.58c-3.463,3.225-3.281,6.677-3.281,6.677h-5.165l1.871,2.772h-3.169l2.943,2.929v94.827
					h-3.522l3.044,3.041v17.138h23.474v-17.138l3.057-3.041H588.193z M576.926,332.23l1.817,3.816h-3.634L576.926,332.23z
					 M582.32,447.757H571.52v-89.418l5.407-3.985l5.394,3.985V447.757z M579.255,346.766h-4.664v-3.509l2.331-1.582l2.333,1.582
					V346.766z M581.267,444.767h-8.696v-84.629l4.354-3.209l4.342,3.209V444.767z"/>
				<path fill="#223C56" d="M516.308,453.593v-65.227l2.014-2.016h-2.176l1.286-1.906h-3.544c0,0,0.124-2.374-2.257-4.592
					l2.099-1.086h-1.131l0.93-1.374h-1.897l1.131-1.048c0,0-3.39-1.21-3.633-2.586c-0.24-1.376,0-2.584,0-2.584l1.038-0.883h-1.329
					l-0.279-4.843l-0.28,4.843h-1.329l1.037,0.883c0,0,0.242,1.208,0,2.584s-3.631,2.586-3.631,2.586l1.131,1.048h-1.898
					l0.929,1.374h-1.131l2.1,1.086c-2.382,2.218-2.256,4.592-2.256,4.592h-3.554l1.289,1.906h-2.179l2.023,2.016v65.227h-2.422
					l2.094,2.092v11.788h16.146v-11.788l2.103-2.092H516.308z M508.56,374.444l1.25,2.628h-2.5L508.56,374.444z M512.269,453.91
					h-7.429v-61.505l3.72-2.741l3.709,2.741V453.91z M510.163,384.444h-3.209v-2.412l1.604-1.091l1.605,1.091V384.444z
					 M511.545,451.855h-5.979v-58.215l2.993-2.206l2.986,2.206V451.855z"/>
				<path fill="#223C56" d="M784.798,357.666h72.047v109.808h-72.047V357.666z M847.728,365.264h6.105v-3.508l-3.053-1.582
					l-3.053,1.582V365.264z M847.728,371.391h6.105v-5.226h-6.105V371.391z M848.367,366.712h4.824v4.13h-4.824V366.712z
					 M847.728,377.229h6.105v-5.227h-6.105V377.229z M848.367,372.551h4.824v4.132h-4.824V372.551z M847.728,383.067h6.105v-5.225
					h-6.105V383.067z M848.367,378.39h4.824v4.13h-4.824V378.39z M847.728,388.906h6.105v-5.225h-6.105V388.906z M848.367,384.229
					h4.824v4.128h-4.824V384.229z M847.728,394.745h6.105v-5.224h-6.105V394.745z M848.367,390.069h4.824v4.129h-4.824V390.069z
					 M847.728,400.581h6.105v-5.223h-6.105V400.581z M848.367,395.906h4.824v4.128h-4.824V395.906z M847.728,406.422h6.105v-5.225
					h-6.105V406.422z M848.367,401.746h4.824v4.129h-4.824V401.746z M847.728,412.261h6.105v-5.224h-6.105V412.261z
					 M848.367,407.585h4.824v4.13h-4.824V407.585z M847.728,418.099h6.105v-5.223h-6.105V418.099z M848.367,413.423h4.824v4.128
					h-4.824V413.423z M847.728,423.938h6.105v-5.224h-6.105V423.938z M848.367,419.262h4.824v4.129h-4.824V419.262z
					 M847.728,429.777h6.105v-5.227h-6.105V429.777z M848.367,425.1h4.824v4.13h-4.824V425.1z M847.728,435.615h6.105v-5.223h-6.105
					V435.615z M848.367,430.938h4.824v4.13h-4.824V430.938z M847.728,441.456h6.105v-5.226h-6.105V441.456z M848.367,436.777h4.824
					v4.132h-4.824V436.777z M841.104,365.264h6.105v-3.508l-3.051-1.582l-3.055,1.582V365.264z M841.104,371.391h6.105v-5.226
					h-6.105V371.391z M841.743,366.712h4.827v4.13h-4.827V366.712z M841.104,377.229h6.105v-5.227h-6.105V377.229z M841.743,372.551
					h4.827v4.132h-4.827V372.551z M841.104,383.067h6.105v-5.225h-6.105V383.067z M841.743,378.39h4.827v4.13h-4.827V378.39z
					 M841.104,388.906h6.105v-5.225h-6.105V388.906z M841.743,384.229h4.827v4.128h-4.827V384.229z M841.104,394.745h6.105v-5.224
					h-6.105V394.745z M841.743,390.069h4.827v4.129h-4.827V390.069z M841.104,400.581h6.105v-5.223h-6.105V400.581z
					 M841.743,395.906h4.827v4.128h-4.827V395.906z M841.104,406.422h6.105v-5.225h-6.105V406.422z M841.743,401.746h4.827v4.129
					h-4.827V401.746z M841.104,412.261h6.105v-5.224h-6.105V412.261z M841.743,407.585h4.827v4.13h-4.827V407.585z M841.104,418.099
					h6.105v-5.223h-6.105V418.099z M841.743,413.423h4.827v4.128h-4.827V413.423z M841.104,423.938h6.105v-5.224h-6.105V423.938z
					 M841.743,419.262h4.827v4.129h-4.827V419.262z M841.104,429.777h6.105v-5.227h-6.105V429.777z M841.743,425.1h4.827v4.13
					h-4.827V425.1z M841.104,435.615h6.105v-5.223h-6.105V435.615z M841.743,430.938h4.827v4.13h-4.827V430.938z M841.104,441.456
					h6.105v-5.226h-6.105V441.456z M841.743,436.777h4.827v4.132h-4.827V436.777z M834.479,365.264h6.109v-3.508l-3.055-1.582
					l-3.055,1.582V365.264z M834.479,371.391h6.109v-5.226h-6.109V371.391z M835.12,366.712h4.828v4.13h-4.828V366.712z
					 M834.479,377.229h6.109v-5.227h-6.109V377.229z M835.12,372.551h4.828v4.132h-4.828V372.551z M834.479,383.067h6.109v-5.225
					h-6.109V383.067z M835.12,378.39h4.828v4.13h-4.828V378.39z M834.479,388.906h6.109v-5.225h-6.109V388.906z M835.12,384.229
					h4.828v4.128h-4.828V384.229z M834.479,394.745h6.109v-5.224h-6.109V394.745z M835.12,390.069h4.828v4.129h-4.828V390.069z
					 M834.479,400.581h6.109v-5.223h-6.109V400.581z M835.12,395.906h4.828v4.128h-4.828V395.906z M834.479,406.422h6.109v-5.225
					h-6.109V406.422z M835.12,401.746h4.828v4.129h-4.828V401.746z M834.479,412.261h6.109v-5.224h-6.109V412.261z M835.12,407.585
					h4.828v4.13h-4.828V407.585z M834.479,418.099h6.109v-5.223h-6.109V418.099z M835.12,413.423h4.828v4.128h-4.828V413.423z
					 M834.479,423.938h6.109v-5.224h-6.109V423.938z M835.12,419.262h4.828v4.129h-4.828V419.262z M834.479,429.777h6.109v-5.227
					h-6.109V429.777z M835.12,425.1h4.828v4.13h-4.828V425.1z M834.479,435.615h6.109v-5.223h-6.109V435.615z M835.12,430.938h4.828
					v4.13h-4.828V430.938z M834.479,441.456h6.109v-5.226h-6.109V441.456z M835.12,436.777h4.828v4.132h-4.828V436.777z
					 M827.856,365.264h6.105v-3.508l-3.051-1.582l-3.055,1.582V365.264z M827.856,371.391h6.105v-5.226h-6.105V371.391z
					 M828.496,366.712h4.827v4.13h-4.827V366.712z M827.856,377.229h6.105v-5.227h-6.105V377.229z M828.496,372.551h4.827v4.132
					h-4.827V372.551z M827.856,383.067h6.105v-5.225h-6.105V383.067z M828.496,378.39h4.827v4.13h-4.827V378.39z M827.856,388.906
					h6.105v-5.225h-6.105V388.906z M828.496,384.229h4.827v4.128h-4.827V384.229z M827.856,394.745h6.105v-5.224h-6.105V394.745z
					 M828.496,390.069h4.827v4.129h-4.827V390.069z M827.856,400.581h6.105v-5.223h-6.105V400.581z M828.496,395.906h4.827v4.128
					h-4.827V395.906z M827.856,406.422h6.105v-5.225h-6.105V406.422z M828.496,401.746h4.827v4.129h-4.827V401.746z
					 M827.856,412.261h6.105v-5.224h-6.105V412.261z M828.496,407.585h4.827v4.13h-4.827V407.585z M827.856,418.099h6.105v-5.223
					h-6.105V418.099z M828.496,413.423h4.827v4.128h-4.827V413.423z M827.856,423.938h6.105v-5.224h-6.105V423.938z
					 M828.496,419.262h4.827v4.129h-4.827V419.262z M827.856,429.777h6.105v-5.227h-6.105V429.777z M828.496,425.1h4.827v4.13
					h-4.827V425.1z M827.856,435.615h6.105v-5.223h-6.105V435.615z M828.496,430.938h4.827v4.13h-4.827V430.938z M827.856,441.456
					h6.105v-5.226h-6.105V441.456z M828.496,436.777h4.827v4.132h-4.827V436.777z M821.231,365.264h6.108v-3.508l-3.055-1.582
					l-3.054,1.582V365.264z M821.231,371.391h6.108v-5.226h-6.108V371.391z M821.873,366.712h4.824v4.13h-4.824V366.712z
					 M821.231,377.229h6.108v-5.227h-6.108V377.229z M821.873,372.551h4.824v4.132h-4.824V372.551z M821.231,383.067h6.108v-5.225
					h-6.108V383.067z M821.873,378.39h4.824v4.13h-4.824V378.39z M821.231,388.906h6.108v-5.225h-6.108V388.906z M821.873,384.229
					h4.824v4.128h-4.824V384.229z M821.231,394.745h6.108v-5.224h-6.108V394.745z M821.873,390.069h4.824v4.129h-4.824V390.069z
					 M821.231,400.581h6.108v-5.223h-6.108V400.581z M821.873,395.906h4.824v4.128h-4.824V395.906z M821.231,406.422h6.108v-5.225
					h-6.108V406.422z M821.873,401.746h4.824v4.129h-4.824V401.746z M821.231,412.261h6.108v-5.224h-6.108V412.261z
					 M821.873,407.585h4.824v4.13h-4.824V407.585z M821.231,418.099h6.108v-5.223h-6.108V418.099z M821.873,413.423h4.824v4.128
					h-4.824V413.423z M821.231,423.938h6.108v-5.224h-6.108V423.938z M821.873,419.262h4.824v4.129h-4.824V419.262z
					 M821.231,429.777h6.108v-5.227h-6.108V429.777z M821.873,425.1h4.824v4.13h-4.824V425.1z M821.231,435.615h6.108v-5.223h-6.108
					V435.615z M821.873,430.938h4.824v4.13h-4.824V430.938z M821.231,441.456h6.108v-5.226h-6.108V441.456z M821.873,436.777h4.824
					v4.132h-4.824V436.777z M814.609,365.264h6.105v-3.508l-3.054-1.582l-3.052,1.582V365.264z M814.609,371.391h6.105v-5.226
					h-6.105V371.391z M815.246,366.712h4.827v4.13h-4.827V366.712z M814.609,377.229h6.105v-5.227h-6.105V377.229z M815.246,372.551
					h4.827v4.132h-4.827V372.551z M814.609,383.067h6.105v-5.225h-6.105V383.067z M815.246,378.39h4.827v4.13h-4.827V378.39z
					 M814.609,388.906h6.105v-5.225h-6.105V388.906z M815.246,384.229h4.827v4.128h-4.827V384.229z M814.609,394.745h6.105v-5.224
					h-6.105V394.745z M815.246,390.069h4.827v4.129h-4.827V390.069z M814.609,400.581h6.105v-5.223h-6.105V400.581z
					 M815.246,395.906h4.827v4.128h-4.827V395.906z M814.609,406.422h6.105v-5.225h-6.105V406.422z M815.246,401.746h4.827v4.129
					h-4.827V401.746z M814.609,412.261h6.105v-5.224h-6.105V412.261z M815.246,407.585h4.827v4.13h-4.827V407.585z M814.609,418.099
					h6.105v-5.223h-6.105V418.099z M815.246,413.423h4.827v4.128h-4.827V413.423z M814.609,423.938h6.105v-5.224h-6.105V423.938z
					 M815.246,419.262h4.827v4.129h-4.827V419.262z M814.609,429.777h6.105v-5.227h-6.105V429.777z M815.246,425.1h4.827v4.13
					h-4.827V425.1z M814.609,435.615h6.105v-5.223h-6.105V435.615z M815.246,430.938h4.827v4.13h-4.827V430.938z M814.609,441.456
					h6.105v-5.226h-6.105V441.456z M815.246,436.777h4.827v4.132h-4.827V436.777z M807.984,365.264h6.106v-3.508l-3.053-1.582
					l-3.054,1.582V365.264z M807.984,371.391h6.106v-5.226h-6.106V371.391z M808.626,366.712h4.826v4.13h-4.826V366.712z
					 M807.984,377.229h6.106v-5.227h-6.106V377.229z M808.626,372.551h4.826v4.132h-4.826V372.551z M807.984,383.067h6.106v-5.225
					h-6.106V383.067z M808.626,378.39h4.826v4.13h-4.826V378.39z M807.984,388.906h6.106v-5.225h-6.106V388.906z M808.626,384.229
					h4.826v4.128h-4.826V384.229z M807.984,394.745h6.106v-5.224h-6.106V394.745z M808.626,390.069h4.826v4.129h-4.826V390.069z
					 M807.984,400.581h6.106v-5.223h-6.106V400.581z M808.626,395.906h4.826v4.128h-4.826V395.906z M807.984,406.422h6.106v-5.225
					h-6.106V406.422z M808.626,401.746h4.826v4.129h-4.826V401.746z M807.984,412.261h6.106v-5.224h-6.106V412.261z
					 M808.626,407.585h4.826v4.13h-4.826V407.585z M807.984,418.099h6.106v-5.223h-6.106V418.099z M808.626,413.423h4.826v4.128
					h-4.826V413.423z M807.984,423.938h6.106v-5.224h-6.106V423.938z M808.626,419.262h4.826v4.129h-4.826V419.262z
					 M807.984,429.777h6.106v-5.227h-6.106V429.777z M808.626,425.1h4.826v4.13h-4.826V425.1z M807.984,435.615h6.106v-5.223h-6.106
					V435.615z M808.626,430.938h4.826v4.13h-4.826V430.938z M807.984,441.456h6.106v-5.226h-6.106V441.456z M808.626,436.777h4.826
					v4.132h-4.826V436.777z M801.361,365.264h6.105v-3.508l-3.053-1.582l-3.053,1.582V365.264z M801.361,371.391h6.105v-5.226
					h-6.105V371.391z M802.001,366.712h4.827v4.13h-4.827V366.712z M801.361,377.229h6.105v-5.227h-6.105V377.229z M802.001,372.551
					h4.827v4.132h-4.827V372.551z M801.361,383.067h6.105v-5.225h-6.105V383.067z M802.001,378.39h4.827v4.13h-4.827V378.39z
					 M801.361,388.906h6.105v-5.225h-6.105V388.906z M802.001,384.229h4.827v4.128h-4.827V384.229z M801.361,394.745h6.105v-5.224
					h-6.105V394.745z M802.001,390.069h4.827v4.129h-4.827V390.069z M801.361,400.581h6.105v-5.223h-6.105V400.581z
					 M802.001,395.906h4.827v4.128h-4.827V395.906z M801.361,406.422h6.105v-5.225h-6.105V406.422z M802.001,401.746h4.827v4.129
					h-4.827V401.746z M801.361,412.261h6.105v-5.224h-6.105V412.261z M802.001,407.585h4.827v4.13h-4.827V407.585z M801.361,418.099
					h6.105v-5.223h-6.105V418.099z M802.001,413.423h4.827v4.128h-4.827V413.423z M801.361,423.938h6.105v-5.224h-6.105V423.938z
					 M802.001,419.262h4.827v4.129h-4.827V419.262z M801.361,429.777h6.105v-5.227h-6.105V429.777z M802.001,425.1h4.827v4.13
					h-4.827V425.1z M801.361,435.615h6.105v-5.223h-6.105V435.615z M802.001,430.938h4.827v4.13h-4.827V430.938z M801.361,441.456
					h6.105v-5.226h-6.105V441.456z M802.001,436.777h4.827v4.132h-4.827V436.777z M794.736,365.264h6.105v-3.508l-3.051-1.582
					l-3.055,1.582V365.264z M794.736,371.391h6.105v-5.226h-6.105V371.391z M795.378,366.712h4.827v4.13h-4.827V366.712z
					 M794.736,377.229h6.105v-5.227h-6.105V377.229z M795.378,372.551h4.827v4.132h-4.827V372.551z M794.736,383.067h6.105v-5.225
					h-6.105V383.067z M795.378,378.39h4.827v4.13h-4.827V378.39z M794.736,388.906h6.105v-5.225h-6.105V388.906z M795.378,384.229
					h4.827v4.128h-4.827V384.229z M794.736,394.745h6.105v-5.224h-6.105V394.745z M795.378,390.069h4.827v4.129h-4.827V390.069z
					 M794.736,400.581h6.105v-5.223h-6.105V400.581z M795.378,395.906h4.827v4.128h-4.827V395.906z M794.736,406.422h6.105v-5.225
					h-6.105V406.422z M795.378,401.746h4.827v4.129h-4.827V401.746z M794.736,412.261h6.105v-5.224h-6.105V412.261z
					 M795.378,407.585h4.827v4.13h-4.827V407.585z M794.736,418.099h6.105v-5.223h-6.105V418.099z M795.378,413.423h4.827v4.128
					h-4.827V413.423z M794.736,423.938h6.105v-5.224h-6.105V423.938z M795.378,419.262h4.827v4.129h-4.827V419.262z
					 M794.736,429.777h6.105v-5.227h-6.105V429.777z M795.378,425.1h4.827v4.13h-4.827V425.1z M794.736,435.615h6.105v-5.223h-6.105
					V435.615z M795.378,430.938h4.827v4.13h-4.827V430.938z M794.736,441.456h6.105v-5.226h-6.105V441.456z M795.378,436.777h4.827
					v4.132h-4.827V436.777z M788.111,365.264h6.108v-3.508l-3.053-1.582l-3.056,1.582V365.264z M788.111,371.391h6.108v-5.226
					h-6.108V371.391z M788.752,366.712h4.826v4.13h-4.826V366.712z M788.111,377.229h6.108v-5.227h-6.108V377.229z M788.752,372.551
					h4.826v4.132h-4.826V372.551z M788.111,383.067h6.108v-5.225h-6.108V383.067z M788.752,378.39h4.826v4.13h-4.826V378.39z
					 M788.111,388.906h6.108v-5.225h-6.108V388.906z M788.752,384.229h4.826v4.128h-4.826V384.229z M788.111,394.745h6.108v-5.224
					h-6.108V394.745z M788.752,390.069h4.826v4.129h-4.826V390.069z M788.111,400.581h6.108v-5.223h-6.108V400.581z
					 M788.752,395.906h4.826v4.128h-4.826V395.906z M788.111,406.422h6.108v-5.225h-6.108V406.422z M788.752,401.746h4.826v4.129
					h-4.826V401.746z M788.111,412.261h6.108v-5.224h-6.108V412.261z M788.752,407.585h4.826v4.13h-4.826V407.585z M788.111,418.099
					h6.108v-5.223h-6.108V418.099z M788.752,413.423h4.826v4.128h-4.826V413.423z M788.111,423.938h6.108v-5.224h-6.108V423.938z
					 M788.752,419.262h4.826v4.129h-4.826V419.262z M788.111,429.777h6.108v-5.227h-6.108V429.777z M788.752,425.1h4.826v4.13
					h-4.826V425.1z M788.111,435.615h6.108v-5.223h-6.108V435.615z M788.752,430.938h4.826v4.13h-4.826V430.938z M788.111,441.456
					h6.108v-5.226h-6.108V441.456z M788.752,436.777h4.826v4.132h-4.826V436.777z"/>
				<path fill="#223C56" d="M879.202,391.466h49.87v76.008h-49.87V391.466z M922.757,396.728h4.229v-2.431l-2.114-1.091
					l-2.114,1.091V396.728z M922.757,400.968h4.229v-3.616h-4.229V400.968z M923.2,397.729h3.342v2.857H923.2V397.729z
					 M922.757,405.009h4.229v-3.614h-4.229V405.009z M923.2,401.771h3.342v2.858H923.2V401.771z M922.757,409.051h4.229v-3.614
					h-4.229V409.051z M923.2,405.813h3.342v2.859H923.2V405.813z M922.757,413.093h4.229v-3.615h-4.229V413.093z M923.2,409.855
					h3.342v2.857H923.2V409.855z M922.757,417.132h4.229v-3.615h-4.229V417.132z M923.2,413.895h3.342v2.858H923.2V413.895z
					 M922.757,421.175h4.229v-3.616h-4.229V421.175z M923.2,417.938h3.342v2.856H923.2V417.938z M922.757,425.216h4.229v-3.615
					h-4.229V425.216z M923.2,421.979h3.342v2.858H923.2V421.979z M922.757,429.258h4.229v-3.617h-4.229V429.258z M923.2,426.02
					h3.342v2.858H923.2V426.02z M922.757,433.3h4.229v-3.617h-4.229V433.3z M923.2,430.062h3.342v2.858H923.2V430.062z
					 M922.757,437.34h4.229v-3.613h-4.229V437.34z M923.2,434.102h3.342v2.858H923.2V434.102z M922.757,441.382h4.229v-3.616h-4.229
					V441.382z M923.2,438.144h3.342v2.858H923.2V438.144z M922.757,445.423h4.229v-3.614h-4.229V445.423z M923.2,442.186h3.342
					v2.857H923.2V442.186z M922.757,449.463h4.229v-3.615h-4.229V449.463z M923.2,446.228h3.342v2.858H923.2V446.228z
					 M918.174,396.728h4.225v-2.431l-2.112-1.091l-2.112,1.091V396.728z M918.174,400.968h4.225v-3.616h-4.225V400.968z
					 M918.617,397.729h3.342v2.857h-3.342V397.729z M918.174,405.009h4.225v-3.614h-4.225V405.009z M918.617,401.771h3.342v2.858
					h-3.342V401.771z M918.174,409.051h4.225v-3.614h-4.225V409.051z M918.617,405.813h3.342v2.859h-3.342V405.813z
					 M918.174,413.093h4.225v-3.615h-4.225V413.093z M918.617,409.855h3.342v2.857h-3.342V409.855z M918.174,417.132h4.225v-3.615
					h-4.225V417.132z M918.617,413.895h3.342v2.858h-3.342V413.895z M918.174,421.175h4.225v-3.616h-4.225V421.175z
					 M918.617,417.938h3.342v2.856h-3.342V417.938z M918.174,425.216h4.225v-3.615h-4.225V425.216z M918.617,421.979h3.342v2.858
					h-3.342V421.979z M918.174,429.258h4.225v-3.617h-4.225V429.258z M918.617,426.02h3.342v2.858h-3.342V426.02z M918.174,433.3
					h4.225v-3.617h-4.225V433.3z M918.617,430.062h3.342v2.858h-3.342V430.062z M918.174,437.34h4.225v-3.613h-4.225V437.34z
					 M918.617,434.102h3.342v2.858h-3.342V434.102z M918.174,441.382h4.225v-3.616h-4.225V441.382z M918.617,438.144h3.342v2.858
					h-3.342V438.144z M918.174,445.423h4.225v-3.614h-4.225V445.423z M918.617,442.186h3.342v2.857h-3.342V442.186z
					 M918.174,449.463h4.225v-3.615h-4.225V449.463z M918.617,446.228h3.342v2.858h-3.342V446.228z M913.589,396.728h4.229v-2.431
					l-2.113-1.091l-2.115,1.091V396.728z M913.589,400.968h4.229v-3.616h-4.229V400.968z M914.032,397.729h3.339v2.857h-3.339
					V397.729z M913.589,405.009h4.229v-3.614h-4.229V405.009z M914.032,401.771h3.339v2.858h-3.339V401.771z M913.589,409.051h4.229
					v-3.614h-4.229V409.051z M914.032,405.813h3.339v2.859h-3.339V405.813z M913.589,413.093h4.229v-3.615h-4.229V413.093z
					 M914.032,409.855h3.339v2.857h-3.339V409.855z M913.589,417.132h4.229v-3.615h-4.229V417.132z M914.032,413.895h3.339v2.858
					h-3.339V413.895z M913.589,421.175h4.229v-3.616h-4.229V421.175z M914.032,417.938h3.339v2.856h-3.339V417.938z
					 M913.589,425.216h4.229v-3.615h-4.229V425.216z M914.032,421.979h3.339v2.858h-3.339V421.979z M913.589,429.258h4.229v-3.617
					h-4.229V429.258z M914.032,426.02h3.339v2.858h-3.339V426.02z M913.589,433.3h4.229v-3.617h-4.229V433.3z M914.032,430.062
					h3.339v2.858h-3.339V430.062z M913.589,437.34h4.229v-3.613h-4.229V437.34z M914.032,434.102h3.339v2.858h-3.339V434.102z
					 M913.589,441.382h4.229v-3.616h-4.229V441.382z M914.032,438.144h3.339v2.858h-3.339V438.144z M913.589,445.423h4.229v-3.614
					h-4.229V445.423z M914.032,442.186h3.339v2.857h-3.339V442.186z M913.589,449.463h4.229v-3.615h-4.229V449.463z
					 M914.032,446.228h3.339v2.858h-3.339V446.228z M909.002,396.728h4.23v-2.431l-2.115-1.091l-2.115,1.091V396.728z
					 M909.002,400.968h4.23v-3.616h-4.23V400.968z M909.447,397.729h3.342v2.857h-3.342V397.729z M909.002,405.009h4.23v-3.614
					h-4.23V405.009z M909.447,401.771h3.342v2.858h-3.342V401.771z M909.002,409.051h4.23v-3.614h-4.23V409.051z M909.447,405.813
					h3.342v2.859h-3.342V405.813z M909.002,413.093h4.23v-3.615h-4.23V413.093z M909.447,409.855h3.342v2.857h-3.342V409.855z
					 M909.002,417.132h4.23v-3.615h-4.23V417.132z M909.447,413.895h3.342v2.858h-3.342V413.895z M909.002,421.175h4.23v-3.616
					h-4.23V421.175z M909.447,417.938h3.342v2.856h-3.342V417.938z M909.002,425.216h4.23v-3.615h-4.23V425.216z M909.447,421.979
					h3.342v2.858h-3.342V421.979z M909.002,429.258h4.23v-3.617h-4.23V429.258z M909.447,426.02h3.342v2.858h-3.342V426.02z
					 M909.002,433.3h4.23v-3.617h-4.23V433.3z M909.447,430.062h3.342v2.858h-3.342V430.062z M909.002,437.34h4.23v-3.613h-4.23
					V437.34z M909.447,434.102h3.342v2.858h-3.342V434.102z M909.002,441.382h4.23v-3.616h-4.23V441.382z M909.447,438.144h3.342
					v2.858h-3.342V438.144z M909.002,445.423h4.23v-3.614h-4.23V445.423z M909.447,442.186h3.342v2.857h-3.342V442.186z
					 M909.002,449.463h4.23v-3.615h-4.23V449.463z M909.447,446.228h3.342v2.858h-3.342V446.228z M904.419,396.728h4.225v-2.431
					l-2.111-1.091l-2.113,1.091V396.728z M904.419,400.968h4.225v-3.616h-4.225V400.968z M904.862,397.729h3.341v2.857h-3.341
					V397.729z M904.419,405.009h4.225v-3.614h-4.225V405.009z M904.862,401.771h3.341v2.858h-3.341V401.771z M904.419,409.051h4.225
					v-3.614h-4.225V409.051z M904.862,405.813h3.341v2.859h-3.341V405.813z M904.419,413.093h4.225v-3.615h-4.225V413.093z
					 M904.862,409.855h3.341v2.857h-3.341V409.855z M904.419,417.132h4.225v-3.615h-4.225V417.132z M904.862,413.895h3.341v2.858
					h-3.341V413.895z M904.419,421.175h4.225v-3.616h-4.225V421.175z M904.862,417.938h3.341v2.856h-3.341V417.938z
					 M904.419,425.216h4.225v-3.615h-4.225V425.216z M904.862,421.979h3.341v2.858h-3.341V421.979z M904.419,429.258h4.225v-3.617
					h-4.225V429.258z M904.862,426.02h3.341v2.858h-3.341V426.02z M904.419,433.3h4.225v-3.617h-4.225V433.3z M904.862,430.062
					h3.341v2.858h-3.341V430.062z M904.419,437.34h4.225v-3.613h-4.225V437.34z M904.862,434.102h3.341v2.858h-3.341V434.102z
					 M904.419,441.382h4.225v-3.616h-4.225V441.382z M904.862,438.144h3.341v2.858h-3.341V438.144z M904.419,445.423h4.225v-3.614
					h-4.225V445.423z M904.862,442.186h3.341v2.857h-3.341V442.186z M904.419,449.463h4.225v-3.615h-4.225V449.463z
					 M904.862,446.228h3.341v2.858h-3.341V446.228z M899.836,396.728h4.226v-2.431l-2.112-1.091l-2.113,1.091V396.728z
					 M899.836,400.968h4.226v-3.616h-4.226V400.968z M900.277,397.729h3.341v2.857h-3.341V397.729z M899.836,405.009h4.226v-3.614
					h-4.226V405.009z M900.277,401.771h3.341v2.858h-3.341V401.771z M899.836,409.051h4.226v-3.614h-4.226V409.051z
					 M900.277,405.813h3.341v2.859h-3.341V405.813z M899.836,413.093h4.226v-3.615h-4.226V413.093z M900.277,409.855h3.341v2.857
					h-3.341V409.855z M899.836,417.132h4.226v-3.615h-4.226V417.132z M900.277,413.895h3.341v2.858h-3.341V413.895z
					 M899.836,421.175h4.226v-3.616h-4.226V421.175z M900.277,417.938h3.341v2.856h-3.341V417.938z M899.836,425.216h4.226v-3.615
					h-4.226V425.216z M900.277,421.979h3.341v2.858h-3.341V421.979z M899.836,429.258h4.226v-3.617h-4.226V429.258z M900.277,426.02
					h3.341v2.858h-3.341V426.02z M899.836,433.3h4.226v-3.617h-4.226V433.3z M900.277,430.062h3.341v2.858h-3.341V430.062z
					 M899.836,437.34h4.226v-3.613h-4.226V437.34z M900.277,434.102h3.341v2.858h-3.341V434.102z M899.836,441.382h4.226v-3.616
					h-4.226V441.382z M900.277,438.144h3.341v2.858h-3.341V438.144z M899.836,445.423h4.226v-3.614h-4.226V445.423z
					 M900.277,442.186h3.341v2.857h-3.341V442.186z M899.836,449.463h4.226v-3.615h-4.226V449.463z M900.277,446.228h3.341v2.858
					h-3.341V446.228z M895.248,396.728h4.23v-2.431l-2.114-1.091l-2.116,1.091V396.728z M895.248,400.968h4.23v-3.616h-4.23V400.968
					z M895.694,397.729h3.341v2.857h-3.341V397.729z M895.248,405.009h4.23v-3.614h-4.23V405.009z M895.694,401.771h3.341v2.858
					h-3.341V401.771z M895.248,409.051h4.23v-3.614h-4.23V409.051z M895.694,405.813h3.341v2.859h-3.341V405.813z M895.248,413.093
					h4.23v-3.615h-4.23V413.093z M895.694,409.855h3.341v2.857h-3.341V409.855z M895.248,417.132h4.23v-3.615h-4.23V417.132z
					 M895.694,413.895h3.341v2.858h-3.341V413.895z M895.248,421.175h4.23v-3.616h-4.23V421.175z M895.694,417.938h3.341v2.856
					h-3.341V417.938z M895.248,425.216h4.23v-3.615h-4.23V425.216z M895.694,421.979h3.341v2.858h-3.341V421.979z M895.248,429.258
					h4.23v-3.617h-4.23V429.258z M895.694,426.02h3.341v2.858h-3.341V426.02z M895.248,433.3h4.23v-3.617h-4.23V433.3z
					 M895.694,430.062h3.341v2.858h-3.341V430.062z M895.248,437.34h4.23v-3.613h-4.23V437.34z M895.694,434.102h3.341v2.858h-3.341
					V434.102z M895.248,441.382h4.23v-3.616h-4.23V441.382z M895.694,438.144h3.341v2.858h-3.341V438.144z M895.248,445.423h4.23
					v-3.614h-4.23V445.423z M895.694,442.186h3.341v2.857h-3.341V442.186z M895.248,449.463h4.23v-3.615h-4.23V449.463z
					 M895.694,446.228h3.341v2.858h-3.341V446.228z M890.665,396.728h4.228v-2.431l-2.115-1.091l-2.112,1.091V396.728z
					 M890.665,400.968h4.228v-3.616h-4.228V400.968z M891.108,397.729h3.339v2.857h-3.339V397.729z M890.665,405.009h4.228v-3.614
					h-4.228V405.009z M891.108,401.771h3.339v2.858h-3.339V401.771z M890.665,409.051h4.228v-3.614h-4.228V409.051z
					 M891.108,405.813h3.339v2.859h-3.339V405.813z M890.665,413.093h4.228v-3.615h-4.228V413.093z M891.108,409.855h3.339v2.857
					h-3.339V409.855z M890.665,417.132h4.228v-3.615h-4.228V417.132z M891.108,413.895h3.339v2.858h-3.339V413.895z
					 M890.665,421.175h4.228v-3.616h-4.228V421.175z M891.108,417.938h3.339v2.856h-3.339V417.938z M890.665,425.216h4.228v-3.615
					h-4.228V425.216z M891.108,421.979h3.339v2.858h-3.339V421.979z M890.665,429.258h4.228v-3.617h-4.228V429.258z M891.108,426.02
					h3.339v2.858h-3.339V426.02z M890.665,433.3h4.228v-3.617h-4.228V433.3z M891.108,430.062h3.339v2.858h-3.339V430.062z
					 M890.665,437.34h4.228v-3.613h-4.228V437.34z M891.108,434.102h3.339v2.858h-3.339V434.102z M890.665,441.382h4.228v-3.616
					h-4.228V441.382z M891.108,438.144h3.339v2.858h-3.339V438.144z M890.665,445.423h4.228v-3.614h-4.228V445.423z
					 M891.108,442.186h3.339v2.857h-3.339V442.186z M890.665,449.463h4.228v-3.615h-4.228V449.463z M891.108,446.228h3.339v2.858
					h-3.339V446.228z M886.083,396.728h4.225v-2.431l-2.113-1.091l-2.111,1.091V396.728z M886.083,400.968h4.225v-3.616h-4.225
					V400.968z M886.522,397.729h3.343v2.857h-3.343V397.729z M886.083,405.009h4.225v-3.614h-4.225V405.009z M886.522,401.771h3.343
					v2.858h-3.343V401.771z M886.083,409.051h4.225v-3.614h-4.225V409.051z M886.522,405.813h3.343v2.859h-3.343V405.813z
					 M886.083,413.093h4.225v-3.615h-4.225V413.093z M886.522,409.855h3.343v2.857h-3.343V409.855z M886.083,417.132h4.225v-3.615
					h-4.225V417.132z M886.522,413.895h3.343v2.858h-3.343V413.895z M886.083,421.175h4.225v-3.616h-4.225V421.175z
					 M886.522,417.938h3.343v2.856h-3.343V417.938z M886.083,425.216h4.225v-3.615h-4.225V425.216z M886.522,421.979h3.343v2.858
					h-3.343V421.979z M886.083,429.258h4.225v-3.617h-4.225V429.258z M886.522,426.02h3.343v2.858h-3.343V426.02z M886.083,433.3
					h4.225v-3.617h-4.225V433.3z M886.522,430.062h3.343v2.858h-3.343V430.062z M886.083,437.34h4.225v-3.613h-4.225V437.34z
					 M886.522,434.102h3.343v2.858h-3.343V434.102z M886.083,441.382h4.225v-3.616h-4.225V441.382z M886.522,438.144h3.343v2.858
					h-3.343V438.144z M886.083,445.423h4.225v-3.614h-4.225V445.423z M886.522,442.186h3.343v2.857h-3.343V442.186z
					 M886.083,449.463h4.225v-3.615h-4.225V449.463z M886.522,446.228h3.343v2.858h-3.343V446.228z M881.495,396.728h4.228v-2.431
					l-2.111-1.091l-2.116,1.091V396.728z M881.495,400.968h4.228v-3.616h-4.228V400.968z M881.938,397.729h3.341v2.857h-3.341
					V397.729z M881.495,405.009h4.228v-3.614h-4.228V405.009z M881.938,401.771h3.341v2.858h-3.341V401.771z M881.495,409.051h4.228
					v-3.614h-4.228V409.051z M881.938,405.813h3.341v2.859h-3.341V405.813z M881.495,413.093h4.228v-3.615h-4.228V413.093z
					 M881.938,409.855h3.341v2.857h-3.341V409.855z M881.495,417.132h4.228v-3.615h-4.228V417.132z M881.938,413.895h3.341v2.858
					h-3.341V413.895z M881.495,421.175h4.228v-3.616h-4.228V421.175z M881.938,417.938h3.341v2.856h-3.341V417.938z
					 M881.495,425.216h4.228v-3.615h-4.228V425.216z M881.938,421.979h3.341v2.858h-3.341V421.979z M881.495,429.258h4.228v-3.617
					h-4.228V429.258z M881.938,426.02h3.341v2.858h-3.341V426.02z M881.495,433.3h4.228v-3.617h-4.228V433.3z M881.938,430.062
					h3.341v2.858h-3.341V430.062z M881.495,437.34h4.228v-3.613h-4.228V437.34z M881.938,434.102h3.341v2.858h-3.341V434.102z
					 M881.495,441.382h4.228v-3.616h-4.228V441.382z M881.938,438.144h3.341v2.858h-3.341V438.144z M881.495,445.423h4.228v-3.614
					h-4.228V445.423z M881.938,442.186h3.341v2.857h-3.341V442.186z M881.495,449.463h4.228v-3.615h-4.228V449.463z
					 M881.938,446.228h3.341v2.858h-3.341V446.228z"/>
				<path fill="#223C56" d="M756.385,443.985l3.555,3.541v19.946h27.323v-19.946l3.54-3.541h-4.099V333.619l3.427-3.409h-3.688
					l2.179-3.229h-6.015c0,0,0.214-4.014-3.818-7.767l3.556-1.837h-1.917l1.572-2.327h-3.211l1.918-1.769
					c0,0-5.736-2.05-6.146-4.378c-0.411-2.326,0-4.377,0-4.377l1.752-1.49h-2.242l-0.478-8.195l-0.477,8.195h-2.243l1.753,1.49
					c0,0,0.408,2.051,0,4.377c-0.41,2.328-6.146,4.378-6.146,4.378l1.917,1.769h-3.213l1.575,2.327h-1.918l3.556,1.837
					c-4.032,3.753-3.819,7.767-3.819,7.767h-5.998l2.18,3.229h-3.688l3.41,3.409v110.366H756.385z M775.707,314.51h-4.229
					l2.116-4.442L775.707,314.51z M767.316,340.455l6.277-4.639l6.292,4.639v104.072h-12.569V340.455z M770.882,322.902l2.719-1.843
					l2.711,1.843v4.082h-5.43V322.902z M768.542,342.548l5.053-3.732l5.066,3.732v98.495h-10.119V342.548z"/>
				<path fill="#223C56" d="M853.324,447.294l3.058,3.041v17.138h23.474v-17.138l3.044-3.041h-3.521v-94.827l2.943-2.929h-3.17
					l1.87-2.772h-5.164c0,0,0.182-3.452-3.281-6.677l3.055-1.58h-1.647l1.351-1.997h-2.758l1.648-1.523c0,0-4.931-1.757-5.283-3.759
					c-0.352-2.001,0-3.758,0-3.758l1.509-1.281h-1.932l-0.408-7.044l-0.406,7.044h-1.932l1.509,1.281c0,0,0.351,1.757,0,3.758
					c-0.353,2.002-5.28,3.759-5.28,3.759l1.648,1.523h-2.761l1.351,1.997h-1.647l3.058,1.58c-3.466,3.225-3.282,6.677-3.282,6.677
					h-5.152l1.871,2.772h-3.17l2.929,2.929v94.827H853.324z M869.929,336.047h-3.635l1.816-3.816L869.929,336.047z M862.718,358.339
					l5.393-3.985l5.41,3.985v89.418h-10.803V358.339z M865.782,343.257l2.333-1.582l2.332,1.582v3.509h-4.665V343.257z
					 M863.772,360.138l4.34-3.209l4.354,3.209v84.629h-8.693V360.138z"/>
				<path fill="#223C56" d="M926.306,453.593l2.104,2.092v11.788h16.146v-11.788l2.094-2.092h-2.423v-65.227l2.022-2.016h-2.177
					l1.287-1.906h-3.555c0,0,0.128-2.374-2.256-4.592l2.099-1.086h-1.131l0.931-1.374h-1.898l1.131-1.048c0,0-3.389-1.21-3.63-2.586
					c-0.242-1.376,0-2.584,0-2.584l1.037-0.883h-1.33l-0.279-4.843l-0.281,4.843h-1.326l1.036,0.883c0,0,0.241,1.208,0,2.584
					c-0.242,1.376-3.632,2.586-3.632,2.586l1.131,1.048h-1.896l0.927,1.374h-1.13l2.1,1.086c-2.379,2.218-2.257,4.592-2.257,4.592
					h-3.543l1.287,1.906h-2.179l2.016,2.016v65.227H926.306z M937.729,377.072h-2.499l1.249-2.628L937.729,377.072z M932.77,392.405
					l3.709-2.741l3.72,2.741v61.505h-7.429V392.405z M934.875,382.032l1.607-1.091l1.604,1.091v2.412h-3.211V382.032z
					 M933.494,393.641l2.985-2.206l2.993,2.206v58.215h-5.979V393.641z"/>
			</g>
		</g>
	</g>
</g>
<g>
	<g>
		
			<image overflow="visible" opacity="0.45" width="285" height="114" xlink:href="D4E31315.png"  transform="matrix(1 0 0 1 874.5 45)">
		</image>
		<g>
			<path fill="#223C56" d="M1106.333,105.243c-5.727,0-11.005,1.874-15.302,5.011c-8.297-10.81-21.342-17.786-36.021-17.786
				c-9.84,0-18.941,3.141-26.377,8.461c-6.752-16.599-23.033-28.306-42.057-28.306c-16.036,0-30.119,8.322-38.194,20.876
				c-2.289-0.658-4.698-1.032-7.198-1.032c-14.209,0-25.737,11.4-25.982,25.549c-0.007,0-0.016,0-0.022,0
				c-7.308,0-13.229,5.923-13.229,13.229h16.599h9.86h14.74h20.67h46.283h19.903h50.323h19.59h32.42
				C1132.338,116.886,1120.695,105.243,1106.333,105.243z"/>
		</g>
	</g>
	<g>
		
			<image overflow="visible" opacity="0.45" width="289" height="115" xlink:href="D4E31316.png"  transform="matrix(1 0 0 1 317.5 13)">
		</image>
		<g>
			<path fill="#223C56" d="M552.396,73.929c-5.8,0-11.144,1.897-15.495,5.074c-8.403-10.947-21.614-18.011-36.48-18.011
				c-9.964,0-19.181,3.181-26.71,8.569c-6.838-16.809-23.324-28.665-42.59-28.665c-16.239,0-30.501,8.428-38.679,21.142
				c-2.317-0.667-4.758-1.045-7.29-1.045c-14.389,0-26.063,11.544-26.311,25.874c-0.008,0-0.016-0.001-0.023-0.001
				c-7.399,0-13.398,5.999-13.398,13.398h16.81h9.986h14.926h20.933h46.869h20.157h50.961h19.837h32.831
				C578.73,85.719,566.94,73.929,552.396,73.929z"/>
		</g>
	</g>
	<g>
		
			<image overflow="visible" opacity="0.45" width="200" height="92" xlink:href="D4E31317.png"  transform="matrix(1 0 0 1 238.5 6)">
		</image>
		<g>
			<path fill="#223C56" d="M282.253,54.209c3.605,0,6.927,1.18,9.632,3.155c5.223-6.805,13.435-11.196,22.676-11.196
				c6.195,0,11.923,1.978,16.604,5.327c4.25-10.449,14.499-17.819,26.474-17.819c10.095,0,18.96,5.24,24.043,13.142
				c1.441-0.415,2.958-0.65,4.532-0.65c8.944,0,16.201,7.176,16.355,16.084c0.004,0,0.009-0.001,0.014-0.001
				c4.6,0,8.329,3.729,8.329,8.328h-10.449h-6.208h-9.278h-13.013h-29.134h-12.53h-31.678h-12.332h-20.408
				C265.883,61.539,273.212,54.209,282.253,54.209z"/>
		</g>
	</g>
	<g>
		
			<image overflow="visible" opacity="0.45" width="176" height="86" xlink:href="D4E31318.png"  transform="matrix(1 0 0 1 782.5 218)">
		</image>
		<g>
			<path fill="#223C56" d="M823.682,262.539c3.003,0,5.77,0.983,8.023,2.628c4.351-5.669,11.19-9.326,18.889-9.326
				c5.158,0,9.931,1.647,13.831,4.437c3.538-8.703,12.076-14.842,22.052-14.842c8.408,0,15.793,4.362,20.027,10.947
				c1.2-0.346,2.463-0.542,3.773-0.542c7.451,0,13.495,5.979,13.624,13.396c0.005,0,0.009,0,0.013,0
				c3.831,0,6.938,3.106,6.938,6.938h-8.704h-5.17h-7.729H898.41h-24.27h-10.437h-26.388h-10.271h-17
				C810.045,268.645,816.15,262.539,823.682,262.539z"/>
		</g>
	</g>
	<g>
		
			<image overflow="visible" opacity="0.45" width="249" height="105" xlink:href="D4E31319.png"  transform="matrix(1 0 0 1 745.5 75)">
		</image>
		<g>
			<path fill="#223C56" d="M794.519,130.524c4.843,0,9.305,1.584,12.937,4.237c7.016-9.14,18.046-15.038,30.458-15.038
				c8.319,0,16.016,2.656,22.301,7.154c5.709-14.035,19.475-23.934,35.559-23.934c13.559,0,25.466,7.037,32.293,17.651
				c1.937-0.557,3.973-0.872,6.087-0.872c12.013,0,21.761,9.639,21.968,21.602c0.007,0,0.013,0,0.02,0
				c6.178,0,11.187,5.008,11.187,11.186h-14.035h-8.338h-12.461h-17.478h-39.132h-16.83h-42.548h-16.563h-27.41
				C772.532,140.368,782.376,130.524,794.519,130.524z"/>
		</g>
	</g>
</g>
</svg>
